<?xml version="1.0" encoding="UTF-8" standalone="no"?>
<svg
   xmlns:dc="http://purl.org/dc/elements/1.1/"
   xmlns:cc="http://creativecommons.org/ns#"
   xmlns:rdf="http://www.w3.org/1999/02/22-rdf-syntax-ns#"
   xmlns:svg="http://www.w3.org/2000/svg"
   xmlns="http://www.w3.org/2000/svg"
   xmlns:sodipodi="http://sodipodi.sourceforge.net/DTD/sodipodi-0.dtd"
   xmlns:inkscape="http://www.inkscape.org/namespaces/inkscape"
   width="27.571196mm"
   height="27.55571mm"
   viewBox="0 0 27.571196 27.55571"
   version="1.1"
   id="svg8"
   inkscape:version="1.0.2 (e86c870879, 2021-01-15, custom)"
   sodipodi:docname="be_dark.svg">
  <defs
     id="defs2" />
  <sodipodi:namedview
     id="base"
     pagecolor="#ffffff"
     bordercolor="#666666"
     borderopacity="1.0"
     inkscape:pageopacity="0.0"
     inkscape:pageshadow="2"
     inkscape:zoom="4.1408646"
     inkscape:cx="73.166198"
     inkscape:cy="49.482898"
     inkscape:document-units="mm"
     inkscape:current-layer="layer1"
     inkscape:document-rotation="0"
     showgrid="false"
     inkscape:window-width="1366"
     inkscape:window-height="752"
     inkscape:window-x="0"
     inkscape:window-y="16"
     inkscape:window-maximized="0" />
  <metadata
     id="metadata5">
    <rdf:RDF>
      <cc:Work
         rdf:about="">
        <dc:format>image/svg+xml</dc:format>
        <dc:type
           rdf:resource="http://purl.org/dc/dcmitype/StillImage" />
        <dc:title />
      </cc:Work>
    </rdf:RDF>
  </metadata>
  <g
     inkscape:label="Layer 1"
     inkscape:groupmode="layer"
     id="layer1"
     transform="translate(-76.926484,-158.09866)">
    <path
       style="fill:#f9f9f9;stroke-width:0.0529689"
       d="m 77.984446,163.03801 -0.02734,-0.56941 -0.08886,-0.21188 -0.08886,-0.21187 -0.18213,-0.26485 -0.182129,-0.26484 -0.106441,-0.30325 -0.106441,-0.30325 v -0.0905 -0.0905 l -0.112985,-0.23339 -0.112985,-0.2334 -0.0249,-0.22087 -0.0249,-0.22088 0.06393,-0.2378 0.06393,-0.23781 0.2008,-0.19121 0.2008,-0.19121 0.23069,-0.11678 0.230691,-0.11677 0.331759,-0.23311 0.331758,-0.2331 0.273756,-0.0813 0.273756,-0.0813 h 0.392743 0.392743 l 0.281883,0.0819 0.281883,0.082 0.310718,0.20083 0.310717,0.20082 0.198638,0.23207 0.198638,0.23206 0.130977,0.26771 0.130977,0.26771 0.07804,0.3743 0.07805,0.37431 0.265905,0.62882 0.265902,0.62881 v 0.11301 0.113 l -0.09269,0.0832 -0.0927,0.0832 -0.198634,0.0369 -0.198634,0.0369 v 0.46434 0.46434 l -0.08728,0.0727 -0.08729,0.0727 -0.455333,0.0265 -0.455334,0.0265 -0.0272,0.15826 -0.0272,0.15826 -0.09245,0.0178 -0.09245,0.0178 -0.03204,-0.0835 -0.03204,-0.0835 0.03173,-0.11906 0.03173,-0.11906 0.05135,-0.0795 0.05135,-0.0794 0.492054,-0.0265 0.492053,-0.0265 0.01503,-0.56941 0.01503,-0.56942 h 0.289537 0.289538 v -0.12183 -0.12183 l -0.05097,-0.051 -0.05097,-0.051 -0.233967,-0.55845 -0.233967,-0.55844 -0.03838,-0.27905 -0.03838,-0.27906 -0.182082,-0.36396 -0.182082,-0.36396 -0.261058,-0.23471 -0.261057,-0.23471 -0.237758,-0.11176 -0.237758,-0.11176 -0.227311,-0.0524 -0.227311,-0.0524 -0.272508,-0.001 -0.272507,-0.001 -0.336636,0.10506 -0.336635,0.10505 -0.181036,0.11145 -0.181036,0.11144 0.330826,0.16398 0.330827,0.16397 0.0356,-0.0553 0.0356,-0.0553 0.169518,-0.0868 0.169519,-0.0868 h 0.269585 0.269585 l 0.196524,0.10078 0.196523,0.10079 0.116652,0.12505 0.116652,0.12506 0.08198,0.19621 0.08198,0.19621 v 0.30279 0.30279 l -0.104642,0.21536 -0.104642,0.21536 -0.795764,0.7938 -0.795763,0.79381 -0.662178,-0.66059 -0.662178,-0.66059 v 0.10892 0.10892 l 0.314269,0.49012 0.314269,0.49013 0.05651,0.26351 0.05651,0.26352 v 0.47411 0.47411 h -0.09844 -0.09844 z m 1.411235,-1.695 0.583685,-0.56942 0.182569,-0.23313 0.182568,-0.23313 0.02477,-0.25779 0.02477,-0.25779 -0.09101,-0.23831 -0.09101,-0.23832 -0.171843,-0.13107 -0.171844,-0.13107 -0.165852,-0.0332 -0.165852,-0.0332 -0.178645,0.0335 -0.178645,0.0335 -0.21681,0.18558 -0.21681,0.18558 -0.0699,-0.0997 -0.0699,-0.0997 -0.185391,-0.11297 -0.185391,-0.11296 -0.18741,-2e-4 -0.18741,-2e-4 -0.233273,0.11918 -0.233272,0.11918 -0.109007,0.21188 -0.109007,0.21187 0.0036,0.26485 0.0036,0.26484 0.08616,0.15891 0.08616,0.15891 0.683491,0.70183 0.683491,0.70184 h 0.04482 0.04482 l 0.583685,-0.56941 z m -0.622024,0.11035 -0.03531,-0.0353 v -0.0357 -0.0357 l 0.582659,-0.60429 0.582658,-0.60429 v -0.0944 -0.0944 l 0.08301,-0.0319 0.08301,-0.0319 0.05645,0.0564 0.05645,0.0565 -0.09973,0.18944 -0.09973,0.18943 -0.552982,0.55569 -0.552982,0.55568 h -0.03409 -0.03409 z m -1.297123,-1.20989 -0.06241,-0.13697 1.96e-4,-0.19615 1.96e-4,-0.19614 0.106783,-0.17514 0.106783,-0.17515 0.170581,-0.0717 0.170581,-0.0717 0.04025,0.0249 0.04025,0.0249 v 0.0776 0.0776 l -0.129652,0.0493 -0.129652,0.0493 -0.08825,0.13469 -0.08825,0.13469 0.03417,0.17224 0.03417,0.17225 0.01158,0.10429 0.01158,0.10428 -0.08325,0.017 -0.08325,0.017 z"
       id="path114" />
  </g>
</svg>
