<?xml version="1.0" encoding="UTF-8" standalone="no"?>
<svg
   xmlns:dc="http://purl.org/dc/elements/1.1/"
   xmlns:cc="http://creativecommons.org/ns#"
   xmlns:rdf="http://www.w3.org/1999/02/22-rdf-syntax-ns#"
   xmlns:svg="http://www.w3.org/2000/svg"
   xmlns="http://www.w3.org/2000/svg"
   xmlns:sodipodi="http://sodipodi.sourceforge.net/DTD/sodipodi-0.dtd"
   xmlns:inkscape="http://www.inkscape.org/namespaces/inkscape"
   width="27.571196mm"
   height="27.55571mm"
   viewBox="0 0 5.5142391 5.5111421"
   version="1.1"
   id="svg8"
   inkscape:version="1.0.2 (e86c870879, 2021-01-15, custom)"
   sodipodi:docname="be_dark.svg">
  <defs
     id="defs2" />
  <sodipodi:namedview
     id="base"
     pagecolor="#ffffff"
     bordercolor="#666666"
     borderopacity="1.0"
     inkscape:pageopacity="0.0"
     inkscape:pageshadow="2"
     inkscape:zoom="5.4019247"
     inkscape:cx="91.237918"
     inkscape:cy="69.515339"
     inkscape:document-units="mm"
     inkscape:current-layer="layer1"
     inkscape:document-rotation="0"
     showgrid="false"
     inkscape:window-width="1366"
     inkscape:window-height="752"
     inkscape:window-x="0"
     inkscape:window-y="16"
     inkscape:window-maximized="0"
     scale-x="0.2" />
  <metadata
     id="metadata5">
    <rdf:RDF>
      <cc:Work
         rdf:about="">
        <dc:format>image/svg+xml</dc:format>
        <dc:type
           rdf:resource="http://purl.org/dc/dcmitype/StillImage" />
        <dc:title></dc:title>
      </cc:Work>
    </rdf:RDF>
  </metadata>
  <g
     inkscape:label="Layer 1"
     inkscape:groupmode="layer"
     id="layer1"
     transform="translate(-76.926484,-158.09866)">
    <path
       style="fill:#f9f9f9;stroke-width:0.0529701"
       d="m 77.984472,163.03814 -0.02734,-0.56944 -0.08887,-0.21187 -0.08887,-0.21189 -0.182135,-0.26485 -0.182134,-0.26484 -0.106442,-0.30326 -0.106444,-0.30326 v -0.0906 -0.0906 l -0.112988,-0.23341 -0.112987,-0.23339 -0.02489,-0.22088 -0.02489,-0.22089 0.06394,-0.2378 0.06394,-0.23782 0.200804,-0.19122 0.200805,-0.19121 0.230696,-0.11678 0.230696,-0.11678 0.331767,-0.23311 0.331766,-0.2331 0.273763,-0.0813 0.273763,-0.0813 h 0.392752 0.392753 l 0.28189,0.0819 0.28189,0.0819 0.310725,0.20083 0.310726,0.20083 0.198643,0.23207 0.198643,0.23207 0.13098,0.26771 0.13098,0.26771 0.07805,0.37432 0.07805,0.37432 0.265911,0.62883 0.265908,0.62882 v 0.11302 0.11301 l -0.0927,0.0831 -0.0927,0.0831 -0.198639,0.0369 -0.198639,0.0369 v 0.46434 0.46436 l -0.08729,0.0727 -0.08729,0.0726 -0.455345,0.0265 -0.455345,0.0265 -0.0272,0.15827 -0.0272,0.15826 -0.09245,0.0178 -0.09245,0.0178 -0.03203,-0.0836 -0.03203,-0.0834 0.03173,-0.11906 0.03173,-0.11907 0.05135,-0.0795 0.05135,-0.0795 0.492066,-0.0265 0.492065,-0.0265 0.01504,-0.56943 0.01504,-0.56943 h 0.289545 0.289545 v -0.12184 -0.12182 l -0.05097,-0.051 -0.05097,-0.0509 -0.233973,-0.55846 -0.233973,-0.55845 -0.03838,-0.27906 -0.03838,-0.27906 -0.182087,-0.36398 -0.182087,-0.36396 -0.261064,-0.23472 -0.261063,-0.23472 -0.237764,-0.11176 -0.237764,-0.11176 -0.227316,-0.0525 -0.227317,-0.0525 -0.272514,-0.001 -0.272514,-0.001 -0.336644,0.10507 -0.336644,0.10506 -0.18104,0.11144 -0.181041,0.11146 0.330835,0.16397 0.330835,0.16397 0.0356,-0.0552 0.0356,-0.0552 0.169523,-0.0868 0.169522,-0.0868 h 0.269592 0.269592 l 0.196528,0.10077 0.196528,0.10077 0.116656,0.12505 0.116654,0.12506 0.08198,0.19622 0.08198,0.19621 v 0.3028 0.30281 l -0.104644,0.21536 -0.104646,0.21536 -0.795783,0.79382 -0.795782,0.79383 -0.662194,-0.66061 -0.662194,-0.66061 v 0.10893 0.10892 l 0.314277,0.49013 0.314276,0.49014 0.05652,0.26352 0.05652,0.26352 v 0.47413 0.47413 h -0.09843 -0.09843 z m 1.41127,-1.69505 0.583699,-0.56943 0.182573,-0.23314 0.182573,-0.23314 0.02477,-0.25778 0.02477,-0.2578 -0.09102,-0.23833 -0.09102,-0.23831 -0.171848,-0.13108 -0.171847,-0.13107 -0.165857,-0.0332 -0.165856,-0.0332 -0.17865,0.0335 -0.17865,0.0335 -0.216814,0.18559 -0.216815,0.18559 -0.0699,-0.0996 -0.0699,-0.0996 -0.185396,-0.11297 -0.185395,-0.11297 -0.187415,-2e-4 -0.187414,-1.9e-4 -0.233278,0.11918 -0.233278,0.11918 -0.10901,0.21188 -0.109009,0.21188 0.0037,0.26486 0.0037,0.26485 0.08616,0.15891 0.08616,0.15891 0.683507,0.70185 0.683507,0.70186 h 0.04482 0.04482 l 0.583699,-0.56943 z m -0.622039,0.11035 -0.03531,-0.0353 v -0.0358 -0.0358 l 0.582673,-0.60431 0.582672,-0.60431 v -0.0943 -0.0943 l 0.08302,-0.0319 0.08302,-0.0319 0.05645,0.0565 0.05645,0.0564 -0.09974,0.18944 -0.09974,0.18944 -0.552996,0.55569 -0.552995,0.5557 h -0.03409 -0.03409 z m -1.297156,-1.20991 -0.06242,-0.13698 1.96e-4,-0.19615 1.96e-4,-0.19615 0.106786,-0.17514 0.106786,-0.17515 0.170585,-0.0717 0.170585,-0.0717 0.04026,0.0249 0.04026,0.0249 v 0.0776 0.0776 l -0.129656,0.0493 -0.129654,0.0493 -0.08826,0.13469 -0.08826,0.13469 0.03417,0.17225 0.03417,0.17225 0.01158,0.1043 0.01158,0.10428 -0.08325,0.0169 -0.08325,0.0169 z"
       id="path114" />
  </g>
</svg>
