<?xml version="1.0" encoding="UTF-8" standalone="no"?>
<svg
   xmlns:dc="http://purl.org/dc/elements/1.1/"
   xmlns:cc="http://creativecommons.org/ns#"
   xmlns:rdf="http://www.w3.org/1999/02/22-rdf-syntax-ns#"
   xmlns:svg="http://www.w3.org/2000/svg"
   xmlns="http://www.w3.org/2000/svg"
   xmlns:sodipodi="http://sodipodi.sourceforge.net/DTD/sodipodi-0.dtd"
   xmlns:inkscape="http://www.inkscape.org/namespaces/inkscape"
   width="27.571196mm"
   height="27.55571mm"
   viewBox="0 0 27.571196 27.55571"
   version="1.1"
   id="svg8"
   inkscape:version="1.0.2 (e86c870879, 2021-01-15)"
   sodipodi:docname="be_dark.svg">
  <defs
     id="defs2" />
  <sodipodi:namedview
     id="base"
     pagecolor="#ffffff"
     bordercolor="#666666"
     borderopacity="1.0"
     inkscape:pageopacity="0.0"
     inkscape:pageshadow="2"
     inkscape:zoom="3.959798"
     inkscape:cx="65.667895"
     inkscape:cy="42.426084"
     inkscape:document-units="mm"
     inkscape:current-layer="layer1"
     inkscape:document-rotation="0"
     showgrid="false"
     inkscape:window-width="948"
     inkscape:window-height="1050"
     inkscape:window-x="5"
     inkscape:window-y="21"
     inkscape:window-maximized="0" />
  <metadata
     id="metadata5">
    <rdf:RDF>
      <cc:Work
         rdf:about="">
        <dc:format>image/svg+xml</dc:format>
        <dc:type
           rdf:resource="http://purl.org/dc/dcmitype/StillImage" />
        <dc:title></dc:title>
      </cc:Work>
    </rdf:RDF>
  </metadata>
  <g
     inkscape:label="Layer 1"
     inkscape:groupmode="layer"
     id="layer1"
     transform="translate(-76.926484,-158.09866)">
    <path
       style="fill:#f9f9f9;stroke-width:0.264583"
       d="m 82.211075,182.77106 -0.136544,-2.84427 -0.443873,-1.05834 -0.443874,-1.05833 -0.909748,-1.32292 -0.909748,-1.32291 -0.531678,-1.51475 -0.531679,-1.51474 v -0.45224 -0.45225 l -0.564368,-1.16582 -0.564368,-1.16583 -0.124356,-1.10328 -0.124355,-1.10329 0.319338,-1.18786 0.319338,-1.18786 1.003008,-0.95511 1.003008,-0.95511 1.152315,-0.58331 1.152315,-0.5833 1.657156,-1.16436 1.657155,-1.16435 1.367429,-0.40609 1.367429,-0.40608 h 1.961778 1.961777 l 1.408025,0.40932 1.408024,0.40933 1.552057,1.00314 1.552056,1.00314 0.99221,1.15918 0.99221,1.15917 0.654238,1.33722 0.65424,1.33722 0.38984,1.86968 0.38984,1.86969 1.32821,3.14097 1.3282,3.14096 v 0.56448 0.56449 l -0.46302,0.41549 -0.46302,0.4155 -0.99219,0.18412 -0.99219,0.18412 v 2.31941 2.31941 l -0.43599,0.36313 -0.43601,0.36312 -2.27442,0.13229 -2.274424,0.1323 -0.135885,0.79051 -0.135886,0.79052 -0.461782,0.0889 -0.461782,0.0889 -0.160026,-0.41703 -0.160026,-0.41702 0.158487,-0.59472 0.158488,-0.59472 0.256478,-0.39687 0.256478,-0.39688 2.45784,-0.13229 2.45784,-0.13229 0.0751,-2.84427 0.0751,-2.84427 h 1.44626 1.44626 v -0.60854 -0.60855 l -0.25461,-0.25461 -0.25461,-0.2546 -1.16868,-2.78947 -1.16868,-2.78946 -0.19171,-1.39389 -0.19171,-1.39389 -0.909512,-1.81801 -0.909514,-1.81801 -1.303999,-1.1724 -1.303999,-1.17241 -1.187616,-0.55825 -1.187617,-0.55824 -1.135435,-0.26191 -1.135435,-0.26191 -1.361193,-0.006 -1.361192,-0.006 -1.681516,0.52477 -1.681516,0.52476 -0.904288,0.55668 -0.904289,0.55668 1.652502,0.81905 1.652502,0.81906 0.177828,-0.27608 0.177829,-0.27608 0.846756,-0.43379 0.846757,-0.4338 h 1.346596 1.346596 l 0.981647,0.50342 0.981647,0.50342 0.582685,0.62467 0.582684,0.62467 0.409503,0.98008 0.409503,0.98008 v 1.51246 1.51247 l -0.522694,1.07572 -0.522695,1.07572 -3.97489,3.96511 -3.97489,3.96511 -3.307624,-3.29968 -3.307623,-3.29968 v 0.54406 0.54406 l 1.569794,2.4482 1.569794,2.4482 0.282289,1.31627 0.28229,1.31627 v 2.36823 2.36823 h -0.491698 -0.491698 z m 7.049213,-8.46667 2.915546,-2.84427 0.911942,-1.16451 0.911943,-1.16451 0.123727,-1.28766 0.123729,-1.28767 -0.454619,-1.1904 -0.454618,-1.1904 -0.85837,-0.65471 -0.85837,-0.65471 -0.828442,-0.16569 -0.828442,-0.16569 -0.892345,0.16741 -0.892346,0.1674 -1.08298,0.92699 -1.08298,0.927 -0.349137,-0.49794 -0.349136,-0.49793 -0.926042,-0.56427 -0.926042,-0.56428 -0.936125,-9.8e-4 -0.936125,-9.9e-4 -1.165211,0.59531 -1.16521,0.59531 -0.544498,1.05834 -0.544497,1.05833 0.01821,1.32292 0.01821,1.32291 0.430365,0.79375 0.430365,0.79375 3.414081,3.50573 3.414082,3.50573 h 0.223892 0.223893 l 2.915546,-2.84427 z m -3.107051,0.55121 -0.176389,-0.17638 v -0.17843 -0.17843 l 2.910417,-3.01849 2.910416,-3.01849 v -0.47145 -0.47146 l 0.41466,-0.15912 0.414659,-0.15912 0.281955,0.28195 0.281955,0.28196 -0.498177,0.94625 -0.498177,0.94625 -2.762182,2.77568 -2.762181,2.77567 h -0.170284 -0.170283 z m -6.479219,-6.04345 -0.311753,-0.68422 9.79e-4,-0.97974 9.79e-4,-0.97974 0.533388,-0.87486 0.533388,-0.87486 0.852064,-0.35826 0.852064,-0.35827 0.201059,0.12426 0.201079,0.12426 v 0.38781 0.38781 l -0.647621,0.24623 -0.647621,0.24622 -0.440816,0.67277 -0.440816,0.67277 0.170677,0.86039 0.170676,0.8604 0.05786,0.52091 0.05786,0.52091 -0.415851,0.0847 -0.415851,0.0847 z"
       id="path114" />
  </g>
</svg>
