<svg data-v-fde0c5aa="" xmlns="http://www.w3.org/2000/svg" viewBox="0 0 300 300" class="iconAboveSlogan"><!----><defs data-v-fde0c5aa=""><!----></defs><rect data-v-fde0c5aa="" fill="#FEE8E9" x="0" y="0" width="300px" height="300px" class="logo-background-square"></rect><defs data-v-fde0c5aa=""><!----></defs><g data-v-fde0c5aa="" id="dacb9e3b-e4a9-4e89-8f4a-e0ef5a8da710" fill="#371213" transform="matrix(2.063819646835327,0,0,2.063819646835327,18.720431761337657,151.9733033534396)"><path d="M4.63 12.46L4.63 12.46Q3.53 12.46 2.62 12.14L2.62 12.14L2.62 12.14Q1.71 11.82 1.16 11.15L1.16 11.15L1.16 11.15Q0.62 10.49 0.62 9.51L0.62 9.51L0.63 9.21L2.44 9.21L2.42 9.46L2.42 9.46Q2.42 10.16 3.02 10.56L3.02 10.56L3.02 10.56Q3.63 10.95 4.68 10.95L4.68 10.95L4.68 10.95Q5.80 10.95 6.34 10.63L6.34 10.63L6.34 10.63Q6.89 10.30 6.89 9.73L6.89 9.73L6.89 9.73Q6.89 9.28 6.57 8.99L6.57 8.99L6.57 8.99Q6.24 8.69 5.77 8.52L5.77 8.52L5.77 8.52Q5.29 8.34 4.42 8.11L4.42 8.11L4.42 8.11Q3.28 7.80 2.57 7.51L2.57 7.51L2.57 7.51Q1.86 7.22 1.36 6.66L1.36 6.66L1.36 6.66Q0.85 6.09 0.85 5.17L0.85 5.17L0.85 5.17Q0.85 3.88 1.92 3.20L1.92 3.20L1.92 3.20Q2.98 2.52 4.70 2.52L4.70 2.52L4.70 2.52Q6.36 2.52 7.40 3.21L7.40 3.21L7.40 3.21Q8.44 3.91 8.44 5.31L8.44 5.31L8.44 5.47L6.68 5.47L6.68 5.32L6.68 5.32Q6.68 4.72 6.14 4.38L6.14 4.38L6.14 4.38Q5.60 4.03 4.69 4.03L4.69 4.03L4.69 4.03Q3.74 4.03 3.20 4.31L3.20 4.31L3.20 4.31Q2.66 4.59 2.66 5.10L2.66 5.10L2.66 5.10Q2.66 5.47 2.97 5.73L2.97 5.73L2.97 5.73Q3.28 5.99 3.75 6.15L3.75 6.15L3.75 6.15Q4.21 6.31 5.01 6.52L5.01 6.52L5.01 6.52Q6.17 6.83 6.91 7.13L6.91 7.13L6.91 7.13Q7.64 7.42 8.17 7.99L8.17 7.99L8.17 7.99Q8.69 8.57 8.69 9.48L8.69 9.48L8.69 9.48Q8.69 11.02 7.60 11.74L7.60 11.74L7.60 11.74Q6.51 12.46 4.63 12.46L4.63 12.46ZM13.38 12.46L13.38 12.46Q11.59 12.46 10.72 11.52L10.72 11.52L10.72 11.52Q9.86 10.58 9.86 8.61L9.86 8.61L9.86 8.61Q9.86 6.64 10.73 5.70L10.73 5.70L10.73 5.70Q11.61 4.76 13.38 4.76L13.38 4.76L13.38 4.76Q15.01 4.76 15.81 5.67L15.81 5.67L15.81 5.67Q16.62 6.58 16.62 8.51L16.62 8.51L16.62 9.02L11.56 9.02L11.56 9.02Q11.61 10.11 12.03 10.62L12.03 10.62L12.03 10.62Q12.46 11.13 13.40 11.13L13.40 11.13L13.40 11.13Q14.10 11.13 14.53 10.77L14.53 10.77L14.53 10.77Q14.97 10.42 14.97 9.72L14.97 9.72L16.62 9.72L16.62 9.72Q16.62 11.07 15.72 11.77L15.72 11.77L15.72 11.77Q14.83 12.46 13.38 12.46L13.38 12.46ZM11.59 7.83L14.87 7.83L14.87 7.83Q14.87 6.09 13.38 6.09L13.38 6.09L13.38 6.09Q12.54 6.09 12.12 6.52L12.12 6.52L12.12 6.52Q11.69 6.94 11.59 7.83L11.59 7.83ZM19.32 14.84L19.32 14.84Q18.54 14.84 17.98 14.38L17.98 14.38L17.98 14.38Q17.43 13.93 17.43 13.12L17.43 13.12L17.43 13.12Q17.43 12.11 18.58 11.59L18.58 11.59L18.58 11.59Q18.24 11.41 18.05 11.13L18.05 11.13L18.05 11.13Q17.85 10.85 17.85 10.47L17.85 10.47L17.85 10.47Q17.85 9.98 18.22 9.66L18.22 9.66L18.22 9.66Q18.59 9.34 19.12 9.21L19.12 9.21L19.12 9.21Q18.62 8.89 18.35 8.39L18.35 8.39L18.35 8.39Q18.07 7.88 18.07 7.25L18.07 7.25L18.07 7.25Q18.07 6.09 18.91 5.42L18.91 5.42L18.91 5.42Q19.74 4.76 21.24 4.76L21.24 4.76L21.24 4.76Q22.08 4.76 22.69 4.98L22.69 4.98L22.69 4.98Q23.14 4.72 23.35 4.38L23.35 4.38L23.35 4.38Q23.56 4.03 23.59 3.71L23.59 3.71L25.21 3.71L25.21 3.71Q25.21 4.44 24.81 4.91L24.81 4.91L24.81 4.91Q24.40 5.39 23.69 5.54L23.69 5.54L23.69 5.54Q24.42 6.23 24.42 7.25L24.42 7.25L24.42 7.25Q24.42 8.41 23.60 9.09L23.60 9.09L23.60 9.09Q22.79 9.76 21.32 9.76L21.32 9.76L20.17 9.76L20.17 9.76Q19.88 9.76 19.71 9.88L19.71 9.88L19.71 9.88Q19.54 10.01 19.54 10.23L19.54 10.23L19.54 10.23Q19.54 10.44 19.70 10.58L19.70 10.58L19.70 10.58Q19.85 10.71 20.12 10.71L20.12 10.71L23.34 10.71L23.34 10.71Q24.16 10.71 24.70 11.25L24.70 11.25L24.70 11.25Q25.23 11.79 25.23 12.61L25.23 12.61L25.23 12.61Q25.23 13.23 24.91 13.74L24.91 13.74L24.91 13.74Q24.58 14.25 23.99 14.55L23.99 14.55L23.99 14.55Q23.39 14.84 22.62 14.84L22.62 14.84L19.32 14.84ZM21.25 8.57L21.25 8.57Q21.99 8.57 22.37 8.22L22.37 8.22L22.37 8.22Q22.75 7.88 22.75 7.25L22.75 7.25L22.75 7.25Q22.75 6.62 22.37 6.28L22.37 6.28L22.37 6.28Q21.99 5.94 21.25 5.94L21.25 5.94L21.25 5.94Q20.51 5.94 20.13 6.28L20.13 6.28L20.13 6.28Q19.75 6.62 19.75 7.25L19.75 7.25L19.75 7.25Q19.75 7.90 20.13 8.23L20.13 8.23L20.13 8.23Q20.51 8.57 21.25 8.57L21.25 8.57ZM19.91 13.62L22.62 13.62L22.62 13.62Q23.02 13.62 23.28 13.42L23.28 13.42L23.28 13.42Q23.55 13.22 23.55 12.88L23.55 12.88L23.55 12.88Q23.55 12.53 23.32 12.33L23.32 12.33L23.32 12.33Q23.10 12.14 22.74 12.14L22.74 12.14L19.91 12.14L19.91 12.14Q19.56 12.14 19.34 12.35L19.34 12.35L19.34 12.35Q19.12 12.56 19.12 12.88L19.12 12.88L19.12 12.88Q19.12 13.22 19.34 13.42L19.34 13.42L19.34 13.42Q19.56 13.62 19.91 13.62L19.91 13.62ZM26.39 12.29L26.39 4.93L27.78 4.93L27.92 5.91L28.01 5.91L28.01 5.91Q28.38 5.38 28.92 5.07L28.92 5.07L28.92 5.07Q29.46 4.76 30.16 4.76L30.16 4.76L30.16 4.76Q31.57 4.76 32.07 5.91L32.07 5.91L32.19 5.91L32.19 5.91Q32.55 5.39 33.12 5.07L33.12 5.07L33.12 5.07Q33.70 4.76 34.40 4.76L34.40 4.76L34.40 4.76Q35.45 4.76 36.05 5.35L36.05 5.35L36.05 5.35Q36.65 5.94 36.65 7.22L36.65 7.22L36.65 12.29L34.97 12.29L34.97 7.56L34.97 7.56Q34.97 6.22 33.81 6.22L33.81 6.22L33.81 6.22Q33.19 6.22 32.78 6.72L32.78 6.72L32.78 6.72Q32.37 7.22 32.37 8.01L32.37 8.01L32.37 12.29L30.69 12.29L30.69 7.56L30.69 7.56Q30.69 6.22 29.53 6.22L29.53 6.22L29.53 6.22Q28.91 6.22 28.49 6.72L28.49 6.72L28.49 6.72Q28.07 7.22 28.07 8.01L28.07 8.01L28.07 12.29L26.39 12.29ZM41.64 12.46L41.64 12.46Q39.84 12.46 38.98 11.52L38.98 11.52L38.98 11.52Q38.11 10.58 38.11 8.61L38.11 8.61L38.11 8.61Q38.11 6.64 38.98 5.70L38.98 5.70L38.98 5.70Q39.86 4.76 41.64 4.76L41.64 4.76L41.64 4.76Q43.26 4.76 44.07 5.67L44.07 5.67L44.07 5.67Q44.87 6.58 44.87 8.51L44.87 8.51L44.87 9.02L39.82 9.02L39.82 9.02Q39.86 10.11 40.29 10.62L40.29 10.62L40.29 10.62Q40.71 11.13 41.65 11.13L41.65 11.13L41.65 11.13Q42.35 11.13 42.78 10.77L42.78 10.77L42.78 10.77Q43.22 10.42 43.22 9.72L43.22 9.72L44.87 9.72L44.87 9.72Q44.87 11.07 43.97 11.77L43.97 11.77L43.97 11.77Q43.08 12.46 41.64 12.46L41.64 12.46ZM39.84 7.83L43.12 7.83L43.12 7.83Q43.12 6.09 41.64 6.09L41.64 6.09L41.64 6.09Q40.80 6.09 40.37 6.52L40.37 6.52L40.37 6.52Q39.94 6.94 39.84 7.83L39.84 7.83ZM46.35 12.29L46.35 4.93L47.74 4.93L47.88 5.91L47.98 5.91L47.98 5.91Q48.38 5.36 48.98 5.06L48.98 5.06L48.98 5.06Q49.57 4.76 50.34 4.76L50.34 4.76L50.34 4.76Q51.46 4.76 52.09 5.37L52.09 5.37L52.09 5.37Q52.72 5.98 52.72 7.32L52.72 7.32L52.72 12.29L51.04 12.29L51.04 7.62L51.04 7.62Q51.04 6.86 50.70 6.54L50.70 6.54L50.70 6.54Q50.36 6.22 49.69 6.22L49.69 6.22L49.69 6.22Q48.99 6.22 48.51 6.72L48.51 6.72L48.51 6.72Q48.03 7.22 48.03 8.01L48.03 8.01L48.03 12.29L46.35 12.29ZM56.50 12.46L56.50 12.46Q55.57 12.46 55.15 11.94L55.15 11.94L55.15 11.94Q54.74 11.41 54.74 10.63L54.74 10.63L54.74 6.30L53.84 6.30L53.84 4.93L54.77 4.93L55.08 2.87L56.42 2.87L56.42 4.93L57.68 4.93L57.68 6.30L56.42 6.30L56.42 10.46L56.42 10.46Q56.42 11.09 57.02 11.09L57.02 11.09L57.68 11.09L57.68 12.24L57.68 12.24Q57.46 12.32 57.12 12.39L57.12 12.39L57.12 12.39Q56.78 12.46 56.50 12.46L56.50 12.46ZM60.83 12.46L60.83 12.46Q59.93 12.46 59.21 12.02L59.21 12.02L59.21 12.02Q58.49 11.58 58.49 10.39L58.49 10.39L58.49 10.39Q58.49 8.97 59.70 8.40L59.70 8.40L59.70 8.40Q60.90 7.83 63.11 7.83L63.11 7.83L63.11 7.21L63.11 7.21Q63.11 6.68 62.84 6.38L62.84 6.38L62.84 6.38Q62.57 6.09 61.85 6.09L61.85 6.09L61.85 6.09Q61.11 6.09 60.80 6.33L60.80 6.33L60.80 6.33Q60.49 6.57 60.49 6.92L60.49 6.92L60.49 7.11L58.87 7.11L58.87 7.11Q58.86 7.03 58.86 6.80L58.86 6.80L58.86 6.80Q58.86 5.85 59.68 5.31L59.68 5.31L59.68 5.31Q60.49 4.76 61.85 4.76L61.85 4.76L61.85 4.76Q63.32 4.76 64.06 5.36L64.06 5.36L64.06 5.36Q64.79 5.96 64.79 7.08L64.79 7.08L64.79 10.60L64.79 10.60Q64.79 10.85 64.93 10.97L64.93 10.97L64.93 10.97Q65.07 11.09 65.28 11.09L65.28 11.09L65.73 11.09L65.73 12.24L65.73 12.24Q65.28 12.45 64.68 12.45L64.68 12.45L64.68 12.45Q64.13 12.45 63.77 12.18L63.77 12.18L63.77 12.18Q63.41 11.91 63.28 11.45L63.28 11.45L63.18 11.45L63.18 11.45Q62.36 12.46 60.83 12.46L60.83 12.46ZM61.33 11.12L61.33 11.12Q62.16 11.12 62.64 10.64L62.64 10.64L62.64 10.64Q63.11 10.16 63.11 9.35L63.11 9.35L63.11 9.02L63.11 9.02Q61.75 9.02 60.98 9.28L60.98 9.28L60.98 9.28Q60.21 9.53 60.21 10.22L60.21 10.22L60.21 10.22Q60.21 11.12 61.33 11.12L61.33 11.12ZM68.68 12.46L68.68 12.46Q67.75 12.46 67.33 11.94L67.33 11.94L67.33 11.94Q66.92 11.41 66.92 10.63L66.92 10.63L66.92 6.30L66.02 6.30L66.02 4.93L66.95 4.93L67.26 2.87L68.60 2.87L68.60 4.93L69.86 4.93L69.86 6.30L68.60 6.30L68.60 10.46L68.60 10.46Q68.60 11.09 69.20 11.09L69.20 11.09L69.86 11.09L69.86 12.24L69.86 12.24Q69.64 12.32 69.30 12.39L69.30 12.39L69.30 12.39Q68.96 12.46 68.68 12.46L68.68 12.46ZM71.22 3.78L71.22 2.17L72.90 2.17L72.90 3.78L71.22 3.78ZM71.22 12.29L71.22 4.93L72.90 4.93L72.90 12.29L71.22 12.29ZM78.01 12.46L78.01 12.46Q76.19 12.46 75.29 11.52L75.29 11.52L75.29 11.52Q74.38 10.58 74.38 8.61L74.38 8.61L74.38 8.61Q74.38 6.64 75.29 5.70L75.29 5.70L75.29 5.70Q76.19 4.76 78.01 4.76L78.01 4.76L78.01 4.76Q79.83 4.76 80.73 5.70L80.73 5.70L80.73 5.70Q81.63 6.64 81.63 8.61L81.63 8.61L81.63 8.61Q81.63 10.58 80.73 11.52L80.73 11.52L80.73 11.52Q79.83 12.46 78.01 12.46L78.01 12.46ZM78.01 11.09L78.01 11.09Q79.00 11.09 79.45 10.51L79.45 10.51L79.45 10.51Q79.90 9.93 79.90 8.71L79.90 8.71L79.90 8.51L79.90 8.51Q79.90 7.29 79.45 6.71L79.45 6.71L79.45 6.71Q79.00 6.13 78.01 6.13L78.01 6.13L78.01 6.13Q77.00 6.13 76.56 6.71L76.56 6.71L76.56 6.71Q76.12 7.29 76.12 8.51L76.12 8.51L76.12 8.71L76.12 8.71Q76.12 9.93 76.56 10.51L76.56 10.51L76.56 10.51Q77.00 11.09 78.01 11.09L78.01 11.09ZM83.13 12.29L83.13 4.93L84.52 4.93L84.66 5.91L84.76 5.91L84.76 5.91Q85.16 5.36 85.76 5.06L85.76 5.06L85.76 5.06Q86.35 4.76 87.12 4.76L87.12 4.76L87.12 4.76Q88.24 4.76 88.87 5.37L88.87 5.37L88.87 5.37Q89.50 5.98 89.50 7.32L89.50 7.32L89.50 12.29L87.82 12.29L87.82 7.62L87.82 7.62Q87.82 6.86 87.48 6.54L87.48 6.54L87.48 6.54Q87.14 6.22 86.46 6.22L86.46 6.22L86.46 6.22Q85.76 6.22 85.29 6.72L85.29 6.72L85.29 6.72Q84.81 7.22 84.81 8.01L84.81 8.01L84.81 12.29L83.13 12.29ZM95.33 12.29L95.33 2.69L102.23 2.69L102.23 4.21L97.12 4.21L97.12 6.82L101.72 6.82L101.72 8.34L97.12 8.34L97.12 12.29L95.33 12.29ZM105.66 12.46L105.66 12.46Q104.76 12.46 104.04 12.02L104.04 12.02L104.04 12.02Q103.32 11.58 103.32 10.39L103.32 10.39L103.32 10.39Q103.32 8.97 104.52 8.40L104.52 8.40L104.52 8.40Q105.73 7.83 107.94 7.83L107.94 7.83L107.94 7.21L107.94 7.21Q107.94 6.68 107.67 6.38L107.67 6.38L107.67 6.38Q107.39 6.09 106.68 6.09L106.68 6.09L106.68 6.09Q105.94 6.09 105.63 6.33L105.63 6.33L105.63 6.33Q105.32 6.57 105.32 6.92L105.32 6.92L105.32 7.11L103.70 7.11L103.70 7.11Q103.68 7.03 103.68 6.80L103.68 6.80L103.68 6.80Q103.68 5.85 104.50 5.31L104.50 5.31L104.50 5.31Q105.32 4.76 106.68 4.76L106.68 4.76L106.68 4.76Q108.15 4.76 108.89 5.36L108.89 5.36L108.89 5.36Q109.62 5.96 109.62 7.08L109.62 7.08L109.62 10.60L109.62 10.60Q109.62 10.85 109.76 10.97L109.76 10.97L109.76 10.97Q109.90 11.09 110.11 11.09L110.11 11.09L110.56 11.09L110.56 12.24L110.56 12.24Q110.11 12.45 109.51 12.45L109.51 12.45L109.51 12.45Q108.96 12.45 108.60 12.18L108.60 12.18L108.60 12.18Q108.23 11.91 108.11 11.45L108.11 11.45L108.01 11.45L108.01 11.45Q107.18 12.46 105.66 12.46L105.66 12.46ZM106.16 11.12L106.16 11.12Q106.99 11.12 107.46 10.64L107.46 10.64L107.46 10.64Q107.94 10.16 107.94 9.35L107.94 9.35L107.94 9.02L107.94 9.02Q106.58 9.02 105.81 9.28L105.81 9.28L105.81 9.28Q105.04 9.53 105.04 10.22L105.04 10.22L105.04 10.22Q105.04 11.12 106.16 11.12L106.16 11.12ZM113.99 12.46L113.99 12.46Q111.61 12.46 111.61 9.90L111.61 9.90L111.61 4.93L113.29 4.93L113.29 9.60L113.29 9.60Q113.29 10.36 113.63 10.68L113.63 10.68L113.63 10.68Q113.97 11.00 114.65 11.00L114.65 11.00L114.65 11.00Q115.35 11.00 115.82 10.50L115.82 10.50L115.82 10.50Q116.30 10.00 116.30 9.21L116.30 9.21L116.30 4.93L117.98 4.93L117.98 12.29L116.59 12.29L116.45 11.31L116.35 11.31L116.35 11.31Q115.95 11.86 115.35 12.16L115.35 12.16L115.35 12.16Q114.76 12.46 113.99 12.46L113.99 12.46ZM119.94 12.29L119.94 2.17L121.62 2.17L121.62 12.29L119.94 12.29ZM125.43 12.46L125.43 12.46Q124.49 12.46 124.08 11.94L124.08 11.94L124.08 11.94Q123.66 11.41 123.66 10.63L123.66 10.63L123.66 6.30L122.77 6.30L122.77 4.93L123.69 4.93L124.00 2.87L125.34 2.87L125.34 4.93L126.60 4.93L126.60 6.30L125.34 6.30L125.34 10.46L125.34 10.46Q125.34 11.09 125.94 11.09L125.94 11.09L126.60 11.09L126.60 12.24L126.60 12.24Q126.38 12.32 126.04 12.39L126.04 12.39L126.04 12.39Q125.71 12.46 125.43 12.46L125.43 12.46Z"></path></g><defs data-v-fde0c5aa=""><linearGradient data-v-fde0c5aa="" gradientTransform="rotate(25)" id="e07e9d4a-4319-4a60-b1ce-45beb1c64cad" x1="0%" y1="0%" x2="100%" y2="0%"><stop data-v-fde0c5aa="" offset="0%" stop-color="#E9007F" stop-opacity="1"></stop><stop data-v-fde0c5aa="" offset="100%" stop-color="#FEA134" stop-opacity="1"></stop></linearGradient></defs><g data-v-fde0c5aa="" id="f6c24266-d377-4ff2-8f7d-e652f07e3113" stroke="none" fill="url(#e07e9d4a-4319-4a60-b1ce-45beb1c64cad)" transform="matrix(1.5746984481811523,0,0,1.5746984481811523,124.80482418228337,94.8987807750099)"><path d="M12.289 5.343v19.9L1 13.954V5.343h11.289m1-1H0v10.026l13.289 13.289V4.343zM31 5.343v8.612L19.711 25.243v-19.9H31m1-1H18.711v23.315L32 14.369V4.343z"></path></g><defs data-v-fde0c5aa=""><!----></defs><g data-v-fde0c5aa="" id="df4881fe-addb-4193-924c-b52ffdc06912" fill="#371213" transform="matrix(0.5696091651916504,0,0,0.5696091651916504,49.93106252836453,191.16497328219847)"><path d="M9.16 12.46L9.16 12.46Q6.89 12.46 5.70 11.24L5.70 11.24L5.70 11.24Q4.51 10.02 4.51 7.49L4.51 7.49L4.51 7.49Q4.51 5.00 5.71 3.76L5.71 3.76L5.71 3.76Q6.92 2.52 9.16 2.52L9.16 2.52L9.16 2.52Q10.39 2.52 11.34 2.93L11.34 2.93L11.34 2.93Q12.29 3.35 12.84 4.18L12.84 4.18L12.84 4.18Q13.40 5.01 13.40 6.23L13.40 6.23L11.56 6.23L11.56 6.23Q11.56 5.18 10.91 4.61L10.91 4.61L10.91 4.61Q10.26 4.03 9.18 4.03L9.18 4.03L9.18 4.03Q7.74 4.03 7.04 4.86L7.04 4.86L7.04 4.86Q6.34 5.68 6.34 7.35L6.34 7.35L6.34 7.63L6.34 7.63Q6.34 9.31 7.04 10.13L7.04 10.13L7.04 10.13Q7.73 10.95 9.18 10.95L9.18 10.95L9.18 10.95Q10.32 10.95 10.98 10.38L10.98 10.38L10.98 10.38Q11.63 9.81 11.63 8.78L11.63 8.78L13.40 8.78L13.40 8.78Q13.40 10.58 12.23 11.52L12.23 11.52L12.23 11.52Q11.06 12.46 9.16 12.46L9.16 12.46ZM19.45 12.46L19.45 12.46Q17.14 12.46 15.88 11.21L15.88 11.21L15.88 11.21Q14.62 9.97 14.62 7.49L14.62 7.49L14.62 7.49Q14.62 5.01 15.88 3.77L15.88 3.77L15.88 3.77Q17.14 2.52 19.45 2.52L19.45 2.52L19.45 2.52Q21.76 2.52 23.02 3.77L23.02 3.77L23.02 3.77Q24.29 5.01 24.29 7.49L24.29 7.49L24.29 7.49Q24.29 9.97 23.02 11.21L23.02 11.21L23.02 11.21Q21.76 12.46 19.45 12.46L19.45 12.46ZM19.45 10.95L19.45 10.95Q20.93 10.95 21.69 10.12L21.69 10.12L21.69 10.12Q22.46 9.28 22.46 7.64L22.46 7.64L22.46 7.35L22.46 7.35Q22.46 5.71 21.69 4.87L21.69 4.87L21.69 4.87Q20.92 4.03 19.45 4.03L19.45 4.03L19.45 4.03Q17.99 4.03 17.22 4.87L17.22 4.87L17.22 4.87Q16.45 5.71 16.45 7.35L16.45 7.35L16.45 7.64L16.45 7.64Q16.45 9.28 17.21 10.12L17.21 10.12L17.21 10.12Q17.98 10.95 19.45 10.95L19.45 10.95ZM25.89 12.29L25.89 2.69L28.64 2.69L30.31 8.41L30.31 8.41Q30.42 8.79 30.57 9.46L30.57 9.46L30.57 9.46Q30.72 10.12 30.76 10.33L30.76 10.33L30.83 10.33L30.83 10.33Q30.87 10.11 31.00 9.43L31.00 9.43L31.00 9.43Q31.12 8.75 31.22 8.41L31.22 8.41L32.90 2.69L35.56 2.69L35.56 12.29L33.77 12.29L33.77 6.09L33.77 6.09Q33.77 5.68 33.80 5.17L33.80 5.17L33.80 5.17Q33.82 4.66 33.84 4.47L33.84 4.47L33.75 4.47L33.75 4.47Q33.64 4.94 33.47 5.53L33.47 5.53L31.50 12.29L29.85 12.29L27.89 5.53L27.89 5.53Q27.79 5.21 27.69 4.80L27.69 4.80L27.61 4.47L27.54 4.47L27.54 4.47Q27.55 4.66 27.57 5.17L27.57 5.17L27.57 5.17Q27.59 5.67 27.59 6.09L27.59 6.09L27.59 12.29L25.89 12.29ZM37.55 12.29L37.55 2.69L40.31 2.69L41.97 8.41L41.97 8.41Q42.08 8.79 42.23 9.46L42.23 9.46L42.23 9.46Q42.38 10.12 42.42 10.33L42.42 10.33L42.49 10.33L42.49 10.33Q42.53 10.11 42.66 9.43L42.66 9.43L42.66 9.43Q42.78 8.75 42.88 8.41L42.88 8.41L44.56 2.69L47.22 2.69L47.22 12.29L45.43 12.29L45.43 6.09L45.43 6.09Q45.43 5.68 45.46 5.17L45.46 5.17L45.46 5.17Q45.49 4.66 45.50 4.47L45.50 4.47L45.42 4.47L45.42 4.47Q45.30 4.94 45.14 5.53L45.14 5.53L43.16 12.29L41.51 12.29L39.55 5.53L39.55 5.53Q39.45 5.21 39.35 4.80L39.35 4.80L39.27 4.47L39.20 4.47L39.20 4.47Q39.21 4.66 39.23 5.17L39.23 5.17L39.23 5.17Q39.26 5.67 39.26 6.09L39.26 6.09L39.26 12.29L37.55 12.29ZM53.26 12.46L53.26 12.46Q51.32 12.46 50.27 11.52L50.27 11.52L50.27 11.52Q49.21 10.58 49.21 8.74L49.21 8.74L49.21 2.69L51.00 2.69L51.00 8.69L51.00 8.69Q51.00 9.80 51.59 10.37L51.59 10.37L51.59 10.37Q52.18 10.95 53.26 10.95L53.26 10.95L53.26 10.95Q54.33 10.95 54.94 10.37L54.94 10.37L54.94 10.37Q55.54 9.80 55.54 8.69L55.54 8.69L55.54 2.69L57.33 2.69L57.33 8.74L57.33 8.74Q57.33 10.58 56.27 11.52L56.27 11.52L56.27 11.52Q55.20 12.46 53.26 12.46L53.26 12.46ZM59.32 12.29L59.32 2.69L61.03 2.69L65.20 8.41L65.20 8.41Q65.37 8.67 65.49 8.88L65.49 8.88L65.49 8.88Q65.62 9.10 65.67 9.18L65.67 9.18L65.74 9.16L65.72 8.40L65.72 2.69L67.44 2.69L67.44 12.29L65.76 12.29L61.56 6.51L61.56 6.51Q61.40 6.30 61.26 6.04L61.26 6.04L61.26 6.04Q61.12 5.78 61.08 5.73L61.08 5.73L61.01 5.77L61.01 5.77Q61.01 5.84 61.03 6.05L61.03 6.05L61.03 6.05Q61.04 6.26 61.04 6.54L61.04 6.54L61.04 12.29L59.32 12.29ZM69.50 12.29L69.50 2.69L71.27 2.69L71.27 12.29L69.50 12.29ZM75.71 12.29L75.71 4.23L72.62 4.23L72.62 2.69L80.58 2.69L80.58 4.23L77.49 4.23L77.49 12.29L75.71 12.29ZM84.67 12.29L84.67 8.39L80.96 2.69L83.02 2.69L85.58 6.78L85.65 6.78L88.17 2.69L90.15 2.69L86.45 8.39L86.45 12.29L84.67 12.29ZM90.79 9.30L90.79 7.73L94.30 7.73L94.30 9.30L90.79 9.30ZM95.87 12.29L95.87 2.69L99.71 2.69L99.71 2.69Q101.93 2.69 103.15 3.88L103.15 3.88L103.15 3.88Q104.37 5.08 104.37 7.49L104.37 7.49L104.37 7.49Q104.37 9.90 103.15 11.09L103.15 11.09L103.15 11.09Q101.93 12.29 99.71 12.29L99.71 12.29L95.87 12.29ZM97.66 10.77L99.71 10.77L99.71 10.77Q101.08 10.77 101.80 9.98L101.80 9.98L101.80 9.98Q102.52 9.20 102.54 7.63L102.54 7.63L102.54 7.35L102.54 7.35Q102.54 5.80 101.81 5.00L101.81 5.00L101.81 5.00Q101.08 4.21 99.71 4.21L99.71 4.21L97.66 4.21L97.66 10.77ZM105.98 12.29L105.98 2.69L111.05 2.69L111.05 2.69Q112.60 2.69 113.39 3.46L113.39 3.46L113.39 3.46Q114.18 4.23 114.18 5.60L114.18 5.60L114.18 5.60Q114.18 6.58 113.75 7.27L113.75 7.27L113.75 7.27Q113.32 7.97 112.48 8.30L112.48 8.30L114.53 12.29L112.57 12.29L110.75 8.58L107.77 8.58L107.77 12.29L105.98 12.29ZM107.77 7.07L110.91 7.07L110.91 7.07Q111.59 7.07 111.99 6.68L111.99 6.68L111.99 6.68Q112.38 6.29 112.38 5.60L112.38 5.60L112.38 5.60Q112.38 4.94 112.00 4.58L112.00 4.58L112.00 4.58Q111.62 4.21 110.91 4.21L110.91 4.21L107.77 4.21L107.77 7.07ZM116.16 12.29L116.16 2.69L117.94 2.69L117.94 12.29L116.16 12.29ZM122.61 12.29L119.10 2.69L121.03 2.69L123.09 8.55L123.09 8.55Q123.21 8.89 123.47 9.66L123.47 9.66L123.47 9.66Q123.65 10.23 123.68 10.29L123.68 10.29L123.75 10.29L123.75 10.29Q124.11 9.09 124.31 8.54L124.31 8.54L126.35 2.69L128.20 2.69L124.70 12.29L122.61 12.29ZM129.32 12.29L129.32 2.69L136.81 2.69L136.81 4.21L131.11 4.21L131.11 6.62L136.19 6.62L136.19 8.15L131.11 8.15L131.11 10.77L136.89 10.77L136.89 12.29L129.32 12.29ZM138.66 12.29L138.66 2.69L140.36 2.69L144.54 8.41L144.54 8.41Q144.70 8.67 144.83 8.88L144.83 8.88L144.83 8.88Q144.96 9.10 145.01 9.18L145.01 9.18L145.08 9.16L145.05 8.40L145.05 2.69L146.78 2.69L146.78 12.29L145.10 12.29L140.90 6.51L140.90 6.51Q140.74 6.30 140.60 6.04L140.60 6.04L140.60 6.04Q140.46 5.78 140.42 5.73L140.42 5.73L140.35 5.77L140.35 5.77Q140.35 5.84 140.36 6.05L140.36 6.05L140.36 6.05Q140.38 6.26 140.38 6.54L140.38 6.54L140.38 12.29L138.66 12.29ZM152.66 12.29L152.66 2.69L156.49 2.69L156.49 2.69Q158.72 2.69 159.94 3.88L159.94 3.88L159.94 3.88Q161.15 5.08 161.15 7.49L161.15 7.49L161.15 7.49Q161.15 9.90 159.94 11.09L159.94 11.09L159.94 11.09Q158.72 12.29 156.49 12.29L156.49 12.29L152.66 12.29ZM154.45 10.77L156.49 10.77L156.49 10.77Q157.86 10.77 158.59 9.98L158.59 9.98L158.59 9.98Q159.31 9.20 159.32 7.63L159.32 7.63L159.32 7.35L159.32 7.35Q159.32 5.80 158.59 5.00L158.59 5.00L158.59 5.00Q157.86 4.21 156.49 4.21L156.49 4.21L154.45 4.21L154.45 10.77ZM161.83 12.29L165.56 2.69L167.82 2.69L171.56 12.29L169.62 12.29L168.84 10.21L164.44 10.21L163.67 12.29L161.83 12.29ZM165.00 8.69L168.27 8.69L167.29 6.06L167.29 6.06Q167.06 5.50 166.81 4.63L166.81 4.63L166.81 4.63Q166.77 4.51 166.73 4.40L166.73 4.40L166.73 4.40Q166.70 4.30 166.67 4.23L166.67 4.23L166.60 4.23L166.46 4.66L165.98 6.06L165.00 8.69ZM175.00 12.29L175.00 4.23L171.91 4.23L171.91 2.69L179.87 2.69L179.87 4.23L176.78 4.23L176.78 12.29L175.00 12.29ZM180.22 12.29L183.96 2.69L186.21 2.69L189.95 12.29L188.02 12.29L187.24 10.21L182.84 10.21L182.07 12.29L180.22 12.29ZM183.40 8.69L186.66 8.69L185.68 6.06L185.68 6.06Q185.46 5.50 185.21 4.63L185.21 4.63L185.21 4.63Q185.16 4.51 185.13 4.40L185.13 4.40L185.13 4.40Q185.09 4.30 185.07 4.23L185.07 4.23L185.00 4.23L184.86 4.66L184.38 6.06L183.40 8.69ZM191.00 12.29L191.00 2.69L196.21 2.69L196.21 2.69Q196.98 2.69 197.59 2.98L197.59 2.98L197.59 2.98Q198.20 3.28 198.54 3.81L198.54 3.81L198.54 3.81Q198.88 4.35 198.88 5.05L198.88 5.05L198.88 5.05Q198.88 5.85 198.44 6.44L198.44 6.44L198.44 6.44Q198.00 7.03 197.32 7.25L197.32 7.25L197.32 7.31L197.32 7.31Q198.13 7.48 198.64 8.11L198.64 8.11L198.64 8.11Q199.15 8.74 199.15 9.65L199.15 9.65L199.15 9.65Q199.15 10.95 198.33 11.62L198.33 11.62L198.33 11.62Q197.51 12.29 196.21 12.29L196.21 12.29L191.00 12.29ZM192.79 6.62L195.73 6.62L195.73 6.62Q196.35 6.62 196.70 6.29L196.70 6.29L196.70 6.29Q197.05 5.95 197.05 5.43L197.05 5.43L197.05 5.43Q197.05 4.83 196.73 4.52L196.73 4.52L196.73 4.52Q196.41 4.21 195.85 4.21L195.85 4.21L192.79 4.21L192.79 6.62ZM192.79 10.77L195.97 10.77L195.97 10.77Q196.59 10.77 196.95 10.44L196.95 10.44L196.95 10.44Q197.32 10.11 197.32 9.45L197.32 9.45L197.32 9.45Q197.32 8.82 196.95 8.47L196.95 8.47L196.95 8.47Q196.59 8.12 195.87 8.12L195.87 8.12L192.79 8.12L192.79 10.77ZM199.91 12.29L203.64 2.69L205.90 2.69L209.64 12.29L207.70 12.29L206.92 10.21L202.52 10.21L201.75 12.29L199.91 12.29ZM203.08 8.69L206.35 8.69L205.37 6.06L205.37 6.06Q205.14 5.50 204.89 4.63L204.89 4.63L204.89 4.63Q204.85 4.51 204.81 4.40L204.81 4.40L204.81 4.40Q204.78 4.30 204.75 4.23L204.75 4.23L204.68 4.23L204.54 4.66L204.06 6.06L203.08 8.69ZM214.33 12.46L214.33 12.46Q213.22 12.46 212.31 12.14L212.31 12.14L212.31 12.14Q211.40 11.82 210.85 11.15L210.85 11.15L210.85 11.15Q210.31 10.49 210.31 9.51L210.31 9.51L210.32 9.21L212.13 9.21L212.11 9.46L212.11 9.46Q212.11 10.16 212.72 10.56L212.72 10.56L212.72 10.56Q213.32 10.95 214.37 10.95L214.37 10.95L214.37 10.95Q215.49 10.95 216.03 10.63L216.03 10.63L216.03 10.63Q216.58 10.30 216.58 9.73L216.58 9.73L216.58 9.73Q216.58 9.28 216.26 8.99L216.26 8.99L216.26 8.99Q215.94 8.69 215.46 8.52L215.46 8.52L215.46 8.52Q214.98 8.34 214.12 8.11L214.12 8.11L214.12 8.11Q212.97 7.80 212.26 7.51L212.26 7.51L212.26 7.51Q211.55 7.22 211.05 6.66L211.05 6.66L211.05 6.66Q210.55 6.09 210.55 5.17L210.55 5.17L210.55 5.17Q210.55 3.88 211.61 3.20L211.61 3.20L211.61 3.20Q212.67 2.52 214.40 2.52L214.40 2.52L214.40 2.52Q216.05 2.52 217.09 3.21L217.09 3.21L217.09 3.21Q218.13 3.91 218.13 5.31L218.13 5.31L218.13 5.47L216.37 5.47L216.37 5.32L216.37 5.32Q216.37 4.72 215.83 4.38L215.83 4.38L215.83 4.38Q215.29 4.03 214.38 4.03L214.38 4.03L214.38 4.03Q213.43 4.03 212.89 4.31L212.89 4.31L212.89 4.31Q212.35 4.59 212.35 5.10L212.35 5.10L212.35 5.10Q212.35 5.47 212.66 5.73L212.66 5.73L212.66 5.73Q212.97 5.99 213.44 6.15L213.44 6.15L213.44 6.15Q213.91 6.31 214.70 6.52L214.70 6.52L214.70 6.52Q215.87 6.83 216.60 7.13L216.60 7.13L216.60 7.13Q217.34 7.42 217.86 7.99L217.86 7.99L217.86 7.99Q218.39 8.57 218.39 9.48L218.39 9.48L218.39 9.48Q218.39 11.02 217.29 11.74L217.29 11.74L217.29 11.74Q216.20 12.46 214.33 12.46L214.33 12.46ZM220.02 12.29L220.02 2.69L227.51 2.69L227.51 4.21L221.82 4.21L221.82 6.62L226.90 6.62L226.90 8.15L221.82 8.15L221.82 10.77L227.60 10.77L227.60 12.29L220.02 12.29ZM237.71 12.46L237.71 12.46Q235.40 12.46 234.14 11.21L234.14 11.21L234.14 11.21Q232.88 9.97 232.88 7.49L232.88 7.49L232.88 7.49Q232.88 5.01 234.14 3.77L234.14 3.77L234.14 3.77Q235.40 2.52 237.71 2.52L237.71 2.52L237.71 2.52Q240.02 2.52 241.28 3.77L241.28 3.77L241.28 3.77Q242.55 5.01 242.55 7.49L242.55 7.49L242.55 7.49Q242.55 9.97 241.28 11.21L241.28 11.21L241.28 11.21Q240.02 12.46 237.71 12.46L237.71 12.46ZM237.71 10.95L237.71 10.95Q239.19 10.95 239.95 10.12L239.95 10.12L239.95 10.12Q240.72 9.28 240.72 7.64L240.72 7.64L240.72 7.35L240.72 7.35Q240.72 5.71 239.95 4.87L239.95 4.87L239.95 4.87Q239.18 4.03 237.71 4.03L237.71 4.03L237.71 4.03Q236.25 4.03 235.48 4.87L235.48 4.87L235.48 4.87Q234.71 5.71 234.71 7.35L234.71 7.35L234.71 7.64L234.71 7.64Q234.71 9.28 235.47 10.12L235.47 10.12L235.47 10.12Q236.24 10.95 237.71 10.95L237.71 10.95ZM244.15 12.29L244.15 2.69L251.05 2.69L251.05 4.21L245.94 4.21L245.94 6.82L250.54 6.82L250.54 8.34L245.94 8.34L245.94 12.29L244.15 12.29ZM256.59 12.29L256.59 2.69L258.38 2.69L258.38 7.55L263.05 2.69L265.23 2.69L261.51 6.57L265.30 12.29L263.19 12.29L260.30 7.83L258.38 9.51L258.38 12.29L256.59 12.29ZM266.43 12.29L266.43 2.69L268.14 2.69L272.31 8.41L272.31 8.41Q272.48 8.67 272.61 8.88L272.61 8.88L272.61 8.88Q272.73 9.10 272.79 9.18L272.79 9.18L272.86 9.16L272.83 8.40L272.83 2.69L274.55 2.69L274.55 12.29L272.87 12.29L268.67 6.51L268.67 6.51Q268.52 6.30 268.38 6.04L268.38 6.04L268.38 6.04Q268.24 5.78 268.20 5.73L268.20 5.73L268.13 5.77L268.13 5.77Q268.13 5.84 268.14 6.05L268.14 6.05L268.14 6.05Q268.16 6.26 268.16 6.54L268.16 6.54L268.16 12.29L266.43 12.29ZM280.99 12.46L280.99 12.46Q278.68 12.46 277.42 11.21L277.42 11.21L277.42 11.21Q276.16 9.97 276.16 7.49L276.16 7.49L276.16 7.49Q276.16 5.01 277.42 3.77L277.42 3.77L277.42 3.77Q278.68 2.52 280.99 2.52L280.99 2.52L280.99 2.52Q283.30 2.52 284.57 3.77L284.57 3.77L284.57 3.77Q285.84 5.01 285.84 7.49L285.84 7.49L285.84 7.49Q285.84 9.97 284.57 11.21L284.57 11.21L284.57 11.21Q283.30 12.46 280.99 12.46L280.99 12.46ZM280.99 10.95L280.99 10.95Q282.48 10.95 283.24 10.12L283.24 10.12L283.24 10.12Q284.00 9.28 284.00 7.64L284.00 7.64L284.00 7.35L284.00 7.35Q284.00 5.71 283.23 4.87L283.23 4.87L283.23 4.87Q282.46 4.03 280.99 4.03L280.99 4.03L280.99 4.03Q279.54 4.03 278.77 4.87L278.77 4.87L278.77 4.87Q278.00 5.71 278.00 7.35L278.00 7.35L278.00 7.64L278.00 7.64Q278.00 9.28 278.76 10.12L278.76 10.12L278.76 10.12Q279.52 10.95 280.99 10.95L280.99 10.95ZM289.14 12.29L286.51 2.69L288.41 2.69L290.00 8.90L290.00 8.90Q290.05 9.14 290.14 9.63L290.14 9.63L290.14 9.63Q290.23 10.12 290.26 10.29L290.26 10.29L290.33 10.29L290.33 10.29Q290.36 10.12 290.43 9.69L290.43 9.69L290.43 9.69Q290.50 9.25 290.57 8.90L290.57 8.90L292.01 2.69L294.28 2.69L295.72 8.90L295.72 8.90Q295.81 9.30 295.88 9.72L295.88 9.72L295.88 9.72Q295.95 10.14 295.97 10.29L295.97 10.29L296.04 10.29L296.04 10.29Q296.07 10.14 296.16 9.65L296.16 9.65L296.16 9.65Q296.25 9.17 296.32 8.90L296.32 8.90L297.89 2.69L299.59 2.69L296.95 12.29L294.88 12.29L293.33 5.96L293.33 5.96Q293.24 5.63 293.17 5.16L293.17 5.16L293.17 5.16Q293.09 4.69 293.06 4.54L293.06 4.54L293.01 4.54L293.01 4.54Q292.98 4.69 292.91 5.12L292.91 5.12L292.91 5.12Q292.84 5.56 292.75 5.96L292.75 5.96L291.21 12.29L289.14 12.29ZM300.65 12.29L300.65 2.69L302.44 2.69L302.44 10.74L307.54 10.74L307.54 12.29L300.65 12.29ZM308.94 12.29L308.94 2.69L316.43 2.69L316.43 4.21L310.73 4.21L310.73 6.62L315.81 6.62L315.81 8.15L310.73 8.15L310.73 10.77L316.51 10.77L316.51 12.29L308.94 12.29ZM318.28 12.29L318.28 2.69L322.11 2.69L322.11 2.69Q324.34 2.69 325.56 3.88L325.56 3.88L325.56 3.88Q326.77 5.08 326.77 7.49L326.77 7.49L326.77 7.49Q326.77 9.90 325.56 11.09L325.56 11.09L325.56 11.09Q324.34 12.29 322.11 12.29L322.11 12.29L318.28 12.29ZM320.07 10.77L322.11 10.77L322.11 10.77Q323.48 10.77 324.21 9.98L324.21 9.98L324.21 9.98Q324.93 9.20 324.94 7.63L324.94 7.63L324.94 7.35L324.94 7.35Q324.94 5.80 324.21 5.00L324.21 5.00L324.21 5.00Q323.48 4.21 322.11 4.21L322.11 4.21L320.07 4.21L320.07 10.77ZM332.51 8.64L332.51 7.15L337.39 7.15L337.39 12.29L336.11 12.29L335.96 11.23L335.96 11.23Q335.33 11.86 334.54 12.16L334.54 12.16L334.54 12.16Q333.76 12.46 332.70 12.46L332.70 12.46L332.70 12.46Q330.41 12.46 329.21 11.23L329.21 11.23L329.21 11.23Q328.01 10.01 328.01 7.49L328.01 7.49L328.01 7.49Q328.01 5.00 329.27 3.76L329.27 3.76L329.27 3.76Q330.54 2.52 332.91 2.52L332.91 2.52L332.91 2.52Q334.17 2.52 335.18 2.90L335.18 2.90L335.18 2.90Q336.20 3.29 336.79 4.06L336.79 4.06L336.79 4.06Q337.39 4.83 337.39 5.96L337.39 5.96L335.54 5.96L335.54 5.96Q335.54 5.05 334.80 4.54L334.80 4.54L334.80 4.54Q334.05 4.03 332.95 4.03L332.95 4.03L332.95 4.03Q331.38 4.03 330.61 4.86L330.61 4.86L330.61 4.86Q329.84 5.68 329.84 7.35L329.84 7.35L329.84 7.63L329.84 7.63Q329.85 9.35 330.58 10.15L330.58 10.15L330.58 10.15Q331.30 10.95 332.78 10.95L332.78 10.95L332.78 10.95Q334.10 10.95 334.85 10.35L334.85 10.35L334.85 10.35Q335.59 9.74 335.59 8.65L335.59 8.65L335.59 8.64L332.51 8.64ZM339.28 12.29L339.28 2.69L346.77 2.69L346.77 4.21L341.07 4.21L341.07 6.62L346.15 6.62L346.15 8.15L341.07 8.15L341.07 10.77L346.85 10.77L346.85 12.29L339.28 12.29Z"></path></g></svg>