<?xml version="1.0" encoding="UTF-8" standalone="no"?>
<svg
   xmlns:dc="http://purl.org/dc/elements/1.1/"
   xmlns:cc="http://creativecommons.org/ns#"
   xmlns:rdf="http://www.w3.org/1999/02/22-rdf-syntax-ns#"
   xmlns:svg="http://www.w3.org/2000/svg"
   xmlns="http://www.w3.org/2000/svg"
   xmlns:xlink="http://www.w3.org/1999/xlink"
   xmlns:sodipodi="http://sodipodi.sourceforge.net/DTD/sodipodi-0.dtd"
   xmlns:inkscape="http://www.inkscape.org/namespaces/inkscape"
   data-v-fde0c5aa=""
   viewBox="0 0 380 58"
   class="iconAboveSlogan"
   version="1.1"
   id="svg26"
   sodipodi:docname="logo.svg"
   width="380"
   height="58"
   inkscape:version="1.0.2 (e86c870879, 2021-01-15, custom)">
  <metadata
     id="metadata30">
    <rdf:RDF>
      <cc:Work
         rdf:about="">
        <dc:format>image/svg+xml</dc:format>
        <dc:type
           rdf:resource="http://purl.org/dc/dcmitype/StillImage" />
        <dc:title></dc:title>
      </cc:Work>
    </rdf:RDF>
  </metadata>
  <sodipodi:namedview
     pagecolor="#ffffff"
     bordercolor="#666666"
     borderopacity="1"
     objecttolerance="10"
     gridtolerance="10"
     guidetolerance="10"
     inkscape:pageopacity="0"
     inkscape:pageshadow="2"
     inkscape:window-width="948"
     inkscape:window-height="1050"
     id="namedview28"
     showgrid="false"
     inkscape:zoom="1"
     inkscape:cx="187.1948"
     inkscape:cy="13.121952"
     inkscape:window-x="5"
     inkscape:window-y="21"
     inkscape:window-maximized="0"
     inkscape:current-layer="svg26"
     inkscape:document-rotation="0" />
  <!---->
  <g
     data-v-fde0c5aa=""
     id="dacb9e3b-e4a9-4e89-8f4a-e0ef5a8da710"
     fill="#371213"
     transform="matrix(2.4866658,0,0,2.4866658,65.182342,-1.9957678)"
     style="fill:#ffffff">
    <path
       d="m 4.63,17.305385 v 0 q -1.1,0 -2.01,-0.32 v 0 0 q -0.91,-0.32 -1.46,-0.99 v 0 0 q -0.54,-0.66 -0.54,-1.64 v 0 l 0.01,-0.3 h 1.81 l -0.02,0.25 v 0 q 0,0.7 0.6,1.1 v 0 0 q 0.61,0.39 1.66,0.39 v 0 0 q 1.12,0 1.66,-0.32 v 0 0 q 0.55,-0.33 0.55,-0.9 v 0 0 q 0,-0.45 -0.32,-0.74 v 0 0 q -0.33,-0.3 -0.8,-0.47 v 0 0 q -0.48,-0.18 -1.35,-0.41 v 0 0 q -1.14,-0.31 -1.85,-0.6 v 0 0 q -0.71,-0.29 -1.21,-0.85 v 0 0 q -0.51,-0.57 -0.51,-1.49 v 0 0 q 0,-1.2900005 1.07,-1.9700005 v 0 0 q 1.06,-0.68 2.78,-0.68 v 0 0 q 1.66,0 2.7,0.69 v 0 0 q 1.04,0.7 1.04,2.1000005 v 0 0.16 H 6.68 v -0.15 0 q 0,-0.6000005 -0.54,-0.9400005 v 0 0 q -0.54,-0.35 -1.45,-0.35 v 0 0 q -0.95,0 -1.49,0.28 v 0 0 q -0.54,0.28 -0.54,0.79 v 0 0 q 0,0.3700005 0.31,0.6300005 v 0 0 q 0.31,0.26 0.78,0.42 v 0 0 q 0.46,0.16 1.26,0.37 v 0 0 q 1.16,0.31 1.9,0.61 v 0 0 q 0.73,0.29 1.26,0.86 v 0 0 q 0.52,0.58 0.52,1.49 v 0 0 q 0,1.54 -1.09,2.26 v 0 0 q -1.09,0.72 -2.97,0.72 z m 8.75,0 v 0 q -1.79,0 -2.66,-0.94 v 0 0 q -0.86,-0.94 -0.86,-2.91 v 0 0 q 0,-1.97 0.87,-2.91 v 0 0 q 0.88,-0.9400005 2.65,-0.9400005 v 0 0 q 1.63,0 2.43,0.9100005 v 0 0 q 0.81,0.91 0.81,2.84 v 0 0.51 h -5.06 v 0 q 0.05,1.09 0.47,1.6 v 0 0 q 0.43,0.51 1.37,0.51 v 0 0 q 0.7,0 1.13,-0.36 v 0 0 q 0.44,-0.35 0.44,-1.05 v 0 h 1.65 v 0 q 0,1.35 -0.9,2.05 v 0 0 q -0.89,0.69 -2.34,0.69 z m -1.79,-4.63 h 3.28 v 0 q 0,-1.74 -1.49,-1.74 v 0 0 q -0.84,0 -1.26,0.43 v 0 0 q -0.43,0.42 -0.53,1.31 z m 7.73,7.01 v 0 q -0.78,0 -1.34,-0.46 v 0 0 q -0.55,-0.45 -0.55,-1.26 v 0 0 q 0,-1.01 1.15,-1.53 v 0 0 q -0.34,-0.18 -0.53,-0.46 v 0 0 q -0.2,-0.28 -0.2,-0.66 v 0 0 q 0,-0.49 0.37,-0.81 v 0 0 q 0.37,-0.32 0.9,-0.45 v 0 0 q -0.5,-0.32 -0.77,-0.82 v 0 0 q -0.28,-0.51 -0.28,-1.14 v 0 0 q 0,-1.16 0.84,-1.83 v 0 0 q 0.83,-0.6600005 2.33,-0.6600005 v 0 0 q 0.84,0 1.45,0.22 v 0 0 q 0.45,-0.26 0.66,-0.6 v 0 0 q 0.21,-0.35 0.24,-0.67 v 0 h 1.62 v 0 q 0,0.73 -0.4,1.2 v 0 0 Q 24.4,10.235385 23.69,10.385385 v 0 0 q 0.73,0.69 0.73,1.71 v 0 0 q 0,1.16 -0.82,1.84 v 0 0 q -0.81,0.67 -2.28,0.67 v 0 h -1.15 v 0 q -0.29,0 -0.46,0.12 v 0 0 q -0.17,0.13 -0.17,0.35 v 0 0 q 0,0.21 0.16,0.35 v 0 0 q 0.15,0.13 0.42,0.13 v 0 h 3.22 v 0 q 0.82,0 1.36,0.54 v 0 0 q 0.53,0.54 0.53,1.36 v 0 0 q 0,0.62 -0.32,1.13 v 0 0 q -0.33,0.51 -0.92,0.81 v 0 0 q -0.6,0.29 -1.37,0.29 v 0 z m 1.93,-6.27 v 0 q 0.74,0 1.12,-0.35 v 0 0 q 0.38,-0.34 0.38,-0.97 v 0 0 q 0,-0.63 -0.38,-0.97 v 0 0 q -0.38,-0.34 -1.12,-0.34 v 0 0 q -0.74,0 -1.12,0.34 v 0 0 q -0.38,0.34 -0.38,0.97 v 0 0 q 0,0.65 0.38,0.98 v 0 0 q 0.38,0.34 1.12,0.34 z m -1.34,5.05 h 2.71 v 0 q 0.4,0 0.66,-0.2 v 0 0 q 0.27,-0.2 0.27,-0.54 v 0 0 q 0,-0.35 -0.23,-0.55 v 0 0 q -0.22,-0.19 -0.58,-0.19 v 0 h -2.83 v 0 q -0.35,0 -0.57,0.21 v 0 0 q -0.22,0.21 -0.22,0.53 v 0 0 q 0,0.34 0.22,0.54 v 0 0 q 0.22,0.2 0.57,0.2 z m 6.48,-1.33 V 9.7753845 h 1.39 l 0.14,0.9800005 h 0.09 v 0 q 0.37,-0.53 0.91,-0.8400005 v 0 0 q 0.54,-0.31 1.24,-0.31 v 0 0 q 1.41,0 1.91,1.1500005 v 0 h 0.12 v 0 q 0.36,-0.52 0.93,-0.8400005 v 0 0 q 0.58,-0.31 1.28,-0.31 v 0 0 q 1.05,0 1.65,0.5900005 v 0 0 q 0.6,0.59 0.6,1.87 v 0 5.07 h -1.68 v -4.73 0 q 0,-1.34 -1.16,-1.34 v 0 0 q -0.62,0 -1.03,0.5 v 0 0 q -0.41,0.5 -0.41,1.29 v 0 4.28 h -1.68 v -4.73 0 q 0,-1.34 -1.16,-1.34 v 0 0 q -0.62,0 -1.04,0.5 v 0 0 q -0.42,0.5 -0.42,1.29 v 0 4.28 z m 15.25,0.17 v 0 q -1.8,0 -2.66,-0.94 v 0 0 q -0.87,-0.94 -0.87,-2.91 v 0 0 q 0,-1.97 0.87,-2.91 v 0 0 q 0.88,-0.9400005 2.66,-0.9400005 v 0 0 q 1.62,0 2.43,0.9100005 v 0 0 q 0.8,0.91 0.8,2.84 v 0 0.51 h -5.05 v 0 q 0.04,1.09 0.47,1.6 v 0 0 q 0.42,0.51 1.36,0.51 v 0 0 q 0.7,0 1.13,-0.36 v 0 0 q 0.44,-0.35 0.44,-1.05 v 0 h 1.65 v 0 q 0,1.35 -0.9,2.05 v 0 0 q -0.89,0.69 -2.33,0.69 z m -1.8,-4.63 h 3.28 v 0 q 0,-1.74 -1.48,-1.74 v 0 0 q -0.84,0 -1.27,0.43 v 0 0 q -0.43,0.42 -0.53,1.31 z m 6.51,4.46 V 9.7753845 h 1.39 l 0.14,0.9800005 h 0.1 v 0 q 0.4,-0.55 1,-0.8500005 v 0 0 q 0.59,-0.3 1.36,-0.3 v 0 0 q 1.12,0 1.75,0.6100005 v 0 0 q 0.63,0.61 0.63,1.95 v 0 4.97 h -1.68 v -4.67 0 q 0,-0.76 -0.34,-1.08 v 0 0 q -0.34,-0.32 -1.01,-0.32 v 0 0 q -0.7,0 -1.18,0.5 v 0 0 q -0.48,0.5 -0.48,1.29 v 0 4.28 z m 10.15,0.17 v 0 q -0.93,0 -1.35,-0.52 v 0 0 q -0.41,-0.53 -0.41,-1.31 v 0 -4.33 h -0.9 V 9.7753845 h 0.93 l 0.31,-2.06 h 1.34 v 2.06 h 1.26 v 1.3700005 h -1.26 v 4.16 0 q 0,0.63 0.6,0.63 v 0 h 0.66 v 1.15 0 q -0.22,0.08 -0.56,0.15 v 0 0 q -0.34,0.07 -0.62,0.07 z m 4.33,0 v 0 q -0.9,0 -1.62,-0.44 v 0 0 q -0.72,-0.44 -0.72,-1.63 v 0 0 q 0,-1.42 1.21,-1.99 v 0 0 q 1.2,-0.57 3.41,-0.57 v 0 -0.62 0 q 0,-0.53 -0.27,-0.83 v 0 0 q -0.27,-0.29 -0.99,-0.29 v 0 0 q -0.74,0 -1.05,0.24 v 0 0 q -0.31,0.24 -0.31,0.59 v 0 0.19 h -1.62 v 0 q -0.01,-0.08 -0.01,-0.31 v 0 0 q 0,-0.95 0.82,-1.49 v 0 0 q 0.81,-0.5500005 2.17,-0.5500005 v 0 0 q 1.47,0 2.21,0.6000005 v 0 0 q 0.73,0.6 0.73,1.72 v 0 3.52 0 q 0,0.25 0.14,0.37 v 0 0 q 0.14,0.12 0.35,0.12 v 0 h 0.45 v 1.15 0 q -0.45,0.21 -1.05,0.21 v 0 0 q -0.55,0 -0.91,-0.27 v 0 0 q -0.36,-0.27 -0.49,-0.73 v 0 h -0.1 v 0 q -0.82,1.01 -2.35,1.01 z m 0.5,-1.34 v 0 q 0.83,0 1.31,-0.48 v 0 0 q 0.47,-0.48 0.47,-1.29 v 0 -0.33 0 q -1.36,0 -2.13,0.26 v 0 0 q -0.77,0.25 -0.77,0.94 v 0 0 q 0,0.9 1.12,0.9 z m 7.35,1.34 v 0 q -0.93,0 -1.35,-0.52 v 0 0 q -0.41,-0.53 -0.41,-1.31 v 0 -4.33 h -0.9 V 9.7753845 h 0.93 l 0.31,-2.06 h 1.34 v 2.06 h 1.26 V 11.145385 H 68.6 v 4.16 0 q 0,0.63 0.6,0.63 v 0 h 0.66 v 1.15 0 q -0.22,0.08 -0.56,0.15 v 0 0 q -0.34,0.07 -0.62,0.07 z m 2.54,-8.6800005 v -1.61 h 1.68 v 1.61 z m 0,8.5100005 V 9.7753845 h 1.68 v 7.3600005 z m 6.79,0.17 v 0 q -1.82,0 -2.72,-0.94 v 0 0 q -0.91,-0.94 -0.91,-2.91 v 0 0 q 0,-1.97 0.91,-2.91 v 0 0 q 0.9,-0.9400005 2.72,-0.9400005 v 0 0 q 1.82,0 2.72,0.9400005 v 0 0 q 0.9,0.94 0.9,2.91 v 0 0 q 0,1.97 -0.9,2.91 v 0 0 q -0.9,0.94 -2.72,0.94 z m 0,-1.37 v 0 q 0.99,0 1.44,-0.58 v 0 0 q 0.45,-0.58 0.45,-1.8 v 0 -0.2 0 q 0,-1.22 -0.45,-1.8 v 0 0 q -0.45,-0.58 -1.44,-0.58 v 0 0 q -1.01,0 -1.45,0.58 v 0 0 q -0.44,0.58 -0.44,1.8 v 0 0.2 0 q 0,1.22 0.44,1.8 v 0 0 q 0.44,0.58 1.45,0.58 z m 5.12,1.2 V 9.7753845 h 1.39 l 0.14,0.9800005 h 0.1 v 0 q 0.4,-0.55 1,-0.8500005 v 0 0 q 0.59,-0.3 1.36,-0.3 v 0 0 q 1.12,0 1.75,0.6100005 v 0 0 q 0.63,0.61 0.63,1.95 v 0 4.97 h -1.68 v -4.67 0 q 0,-0.76 -0.34,-1.08 v 0 0 q -0.34,-0.32 -1.02,-0.32 v 0 0 q -0.7,0 -1.17,0.5 v 0 0 q -0.48,0.5 -0.48,1.29 v 0 4.28 z m 12.2,0 V 7.5353845 h 6.9 v 1.52 h -5.11 v 2.6100005 h 4.6 v 1.52 h -4.6 v 3.95 z m 10.33,0.17 v 0 q -0.9,0 -1.62,-0.44 v 0 0 q -0.72,-0.44 -0.72,-1.63 v 0 0 q 0,-1.42 1.2,-1.99 v 0 0 q 1.21,-0.57 3.42,-0.57 v 0 -0.62 0 q 0,-0.53 -0.27,-0.83 v 0 0 q -0.28,-0.29 -0.99,-0.29 v 0 0 q -0.74,0 -1.05,0.24 v 0 0 q -0.31,0.24 -0.31,0.59 v 0 0.19 h -1.62 v 0 q -0.02,-0.08 -0.02,-0.31 v 0 0 q 0,-0.95 0.82,-1.49 v 0 0 q 0.82,-0.5500005 2.18,-0.5500005 v 0 0 q 1.47,0 2.21,0.6000005 v 0 0 q 0.73,0.6 0.73,1.72 v 0 3.52 0 q 0,0.25 0.14,0.37 v 0 0 q 0.14,0.12 0.35,0.12 v 0 h 0.45 v 1.15 0 q -0.45,0.21 -1.05,0.21 v 0 0 q -0.55,0 -0.91,-0.27 v 0 0 q -0.37,-0.27 -0.49,-0.73 v 0 h -0.1 v 0 q -0.83,1.01 -2.35,1.01 z m 0.5,-1.34 v 0 q 0.83,0 1.3,-0.48 v 0 0 q 0.48,-0.48 0.48,-1.29 v 0 -0.33 0 q -1.36,0 -2.13,0.26 v 0 0 q -0.77,0.25 -0.77,0.94 v 0 0 q 0,0.9 1.12,0.9 z m 7.83,1.34 v 0 q -2.38,0 -2.38,-2.56 v 0 -4.9700005 h 1.68 v 4.6700005 0 q 0,0.76 0.34,1.08 v 0 0 q 0.34,0.32 1.02,0.32 v 0 0 q 0.7,0 1.17,-0.5 v 0 0 q 0.48,-0.5 0.48,-1.29 v 0 -4.2800005 h 1.68 v 7.3600005 h -1.39 l -0.14,-0.98 h -0.1 v 0 q -0.4,0.55 -1,0.85 v 0 0 q -0.59,0.3 -1.36,0.3 z m 5.95,-0.17 V 7.0153845 h 1.68 V 17.135385 Z m 5.49,0.17 v 0 q -0.94,0 -1.35,-0.52 v 0 0 q -0.42,-0.53 -0.42,-1.31 v 0 -4.33 h -0.89 V 9.7753845 h 0.92 l 0.31,-2.06 h 1.34 v 2.06 h 1.26 v 1.3700005 h -1.26 v 4.16 0 q 0,0.63 0.6,0.63 v 0 h 0.66 v 1.15 0 q -0.22,0.08 -0.56,0.15 v 0 0 q -0.33,0.07 -0.61,0.07 z"
       id="path8"
       style="fill:#ffffff" />
  </g>
  <defs
     data-v-fde0c5aa=""
     id="defs2">
    <!---->
    <linearGradient
       inkscape:collect="always"
       xlink:href="#e07e9d4a-4319-4a60-b1ce-45beb1c64cad"
       id="linearGradient32"
       gradientTransform="scale(1.1715404,0.85357703)"
       x1="0"
       y1="5.0880003"
       x2="27.314465"
       y2="5.0880003"
       gradientUnits="userSpaceOnUse" />
    <linearGradient
       inkscape:collect="always"
       xlink:href="#e07e9d4a-4319-4a60-b1ce-45beb1c64cad"
       id="linearGradient34"
       gradientTransform="scale(1.1715404,0.85357703)"
       x1="0"
       y1="5.0880003"
       x2="27.314465"
       y2="5.0880003"
       gradientUnits="userSpaceOnUse" />
  </defs>
  <defs
     data-v-fde0c5aa=""
     id="defs6">
    <!---->
  </defs>
  <defs
     data-v-fde0c5aa=""
     id="defs16">
    <linearGradient
       data-v-fde0c5aa=""
       gradientTransform="rotate(25)"
       id="e07e9d4a-4319-4a60-b1ce-45beb1c64cad"
       x1="0"
       y1="0"
       x2="1"
       y2="0">
      <stop
         data-v-fde0c5aa=""
         offset="0%"
         stop-color="#E9007F"
         stop-opacity="1"
         id="stop11" />
      <stop
         data-v-fde0c5aa=""
         offset="100%"
         stop-color="#FEA134"
         stop-opacity="1"
         id="stop13" />
    </linearGradient>
  </defs>
  <g
     data-v-fde0c5aa=""
     id="f6c24266-d377-4ff2-8f7d-e652f07e3113"
     stroke="none"
     fill="url(#e07e9d4a-4319-4a60-b1ce-45beb1c64cad)"
     transform="matrix(1.7884382,0,0,1.8360894,0,-0.0684684)"
     style="fill:url(#linearGradient34)">
    <path
       d="m 12.289,5.343 v 19.9 L 1,13.954 V 5.343 h 11.289 m 1,-1 H 0 v 10.026 l 13.289,13.289 z m 17.711,1 v 8.612 L 19.711,25.243 V 5.343 H 31 m 1,-1 H 18.711 V 27.658 L 32,14.369 Z"
       id="path18"
       style="fill:url(#linearGradient32)" />
  </g>
  <defs
     data-v-fde0c5aa=""
     id="defs21">
    <!---->
  </defs>
</svg>
