<svg data-v-fde0c5aa="" xmlns="http://www.w3.org/2000/svg" viewBox="0 0 300 300" class="font"><!----><defs data-v-fde0c5aa=""><!----></defs><rect data-v-fde0c5aa="" fill="#FEE8E9" x="0" y="0" width="300px" height="300px" class="logo-background-square"></rect><defs data-v-fde0c5aa=""><linearGradient data-v-fde0c5aa="" gradientTransform="rotate(25)" id="9837bc2e-e76c-421c-8b30-ef6936e1ab4b" x1="0%" y1="0%" x2="100%" y2="0%"><stop data-v-fde0c5aa="" offset="0%" stop-color="#E9007F" stop-opacity="1"></stop><stop data-v-fde0c5aa="" offset="100%" stop-color="#FEA134" stop-opacity="1"></stop></linearGradient></defs><g data-v-fde0c5aa="" id="a451b8e2-e969-4401-8616-4d68029e5d1b" fill="url(#9837bc2e-e76c-421c-8b30-ef6936e1ab4b)" transform="matrix(1.7463090419769287,0,0,1.7463090419769287,38.91728841343956,135.14764177938466)"><path d="M4.63 12.46L4.63 12.46Q3.53 12.46 2.62 12.14L2.62 12.14L2.62 12.14Q1.71 11.82 1.16 11.15L1.16 11.15L1.16 11.15Q0.62 10.49 0.62 9.51L0.62 9.51L0.63 9.21L2.44 9.21L2.42 9.46L2.42 9.46Q2.42 10.16 3.02 10.56L3.02 10.56L3.02 10.56Q3.63 10.95 4.68 10.95L4.68 10.95L4.68 10.95Q5.80 10.95 6.34 10.63L6.34 10.63L6.34 10.63Q6.89 10.30 6.89 9.73L6.89 9.73L6.89 9.73Q6.89 9.28 6.57 8.99L6.57 8.99L6.57 8.99Q6.24 8.69 5.77 8.52L5.77 8.52L5.77 8.52Q5.29 8.34 4.42 8.11L4.42 8.11L4.42 8.11Q3.28 7.80 2.57 7.51L2.57 7.51L2.57 7.51Q1.86 7.22 1.36 6.66L1.36 6.66L1.36 6.66Q0.85 6.09 0.85 5.17L0.85 5.17L0.85 5.17Q0.85 3.88 1.92 3.20L1.92 3.20L1.92 3.20Q2.98 2.52 4.70 2.52L4.70 2.52L4.70 2.52Q6.36 2.52 7.40 3.21L7.40 3.21L7.40 3.21Q8.44 3.91 8.44 5.31L8.44 5.31L8.44 5.47L6.68 5.47L6.68 5.32L6.68 5.32Q6.68 4.72 6.14 4.38L6.14 4.38L6.14 4.38Q5.60 4.03 4.69 4.03L4.69 4.03L4.69 4.03Q3.74 4.03 3.20 4.31L3.20 4.31L3.20 4.31Q2.66 4.59 2.66 5.10L2.66 5.10L2.66 5.10Q2.66 5.47 2.97 5.73L2.97 5.73L2.97 5.73Q3.28 5.99 3.75 6.15L3.75 6.15L3.75 6.15Q4.21 6.31 5.01 6.52L5.01 6.52L5.01 6.52Q6.17 6.83 6.91 7.13L6.91 7.13L6.91 7.13Q7.64 7.42 8.17 7.99L8.17 7.99L8.17 7.99Q8.69 8.57 8.69 9.48L8.69 9.48L8.69 9.48Q8.69 11.02 7.60 11.74L7.60 11.74L7.60 11.74Q6.51 12.46 4.63 12.46L4.63 12.46ZM13.38 12.46L13.38 12.46Q11.59 12.46 10.72 11.52L10.72 11.52L10.72 11.52Q9.86 10.58 9.86 8.61L9.86 8.61L9.86 8.61Q9.86 6.64 10.73 5.70L10.73 5.70L10.73 5.70Q11.61 4.76 13.38 4.76L13.38 4.76L13.38 4.76Q15.01 4.76 15.81 5.67L15.81 5.67L15.81 5.67Q16.62 6.58 16.62 8.51L16.62 8.51L16.62 9.02L11.56 9.02L11.56 9.02Q11.61 10.11 12.03 10.62L12.03 10.62L12.03 10.62Q12.46 11.13 13.40 11.13L13.40 11.13L13.40 11.13Q14.10 11.13 14.53 10.77L14.53 10.77L14.53 10.77Q14.97 10.42 14.97 9.72L14.97 9.72L16.62 9.72L16.62 9.72Q16.62 11.07 15.72 11.77L15.72 11.77L15.72 11.77Q14.83 12.46 13.38 12.46L13.38 12.46ZM11.59 7.83L14.87 7.83L14.87 7.83Q14.87 6.09 13.38 6.09L13.38 6.09L13.38 6.09Q12.54 6.09 12.12 6.52L12.12 6.52L12.12 6.52Q11.69 6.94 11.59 7.83L11.59 7.83ZM19.32 14.84L19.32 14.84Q18.54 14.84 17.98 14.38L17.98 14.38L17.98 14.38Q17.43 13.93 17.43 13.12L17.43 13.12L17.43 13.12Q17.43 12.11 18.58 11.59L18.58 11.59L18.58 11.59Q18.24 11.41 18.05 11.13L18.05 11.13L18.05 11.13Q17.85 10.85 17.85 10.47L17.85 10.47L17.85 10.47Q17.85 9.98 18.22 9.66L18.22 9.66L18.22 9.66Q18.59 9.34 19.12 9.21L19.12 9.21L19.12 9.21Q18.62 8.89 18.35 8.39L18.35 8.39L18.35 8.39Q18.07 7.88 18.07 7.25L18.07 7.25L18.07 7.25Q18.07 6.09 18.91 5.42L18.91 5.42L18.91 5.42Q19.74 4.76 21.24 4.76L21.24 4.76L21.24 4.76Q22.08 4.76 22.69 4.98L22.69 4.98L22.69 4.98Q23.14 4.72 23.35 4.38L23.35 4.38L23.35 4.38Q23.56 4.03 23.59 3.71L23.59 3.71L25.21 3.71L25.21 3.71Q25.21 4.44 24.81 4.91L24.81 4.91L24.81 4.91Q24.40 5.39 23.69 5.54L23.69 5.54L23.69 5.54Q24.42 6.23 24.42 7.25L24.42 7.25L24.42 7.25Q24.42 8.41 23.60 9.09L23.60 9.09L23.60 9.09Q22.79 9.76 21.32 9.76L21.32 9.76L20.17 9.76L20.17 9.76Q19.88 9.76 19.71 9.88L19.71 9.88L19.71 9.88Q19.54 10.01 19.54 10.23L19.54 10.23L19.54 10.23Q19.54 10.44 19.70 10.58L19.70 10.58L19.70 10.58Q19.85 10.71 20.12 10.71L20.12 10.71L23.34 10.71L23.34 10.71Q24.16 10.71 24.70 11.25L24.70 11.25L24.70 11.25Q25.23 11.79 25.23 12.61L25.23 12.61L25.23 12.61Q25.23 13.23 24.91 13.74L24.91 13.74L24.91 13.74Q24.58 14.25 23.99 14.55L23.99 14.55L23.99 14.55Q23.39 14.84 22.62 14.84L22.62 14.84L19.32 14.84ZM21.25 8.57L21.25 8.57Q21.99 8.57 22.37 8.22L22.37 8.22L22.37 8.22Q22.75 7.88 22.75 7.25L22.75 7.25L22.75 7.25Q22.75 6.62 22.37 6.28L22.37 6.28L22.37 6.28Q21.99 5.94 21.25 5.94L21.25 5.94L21.25 5.94Q20.51 5.94 20.13 6.28L20.13 6.28L20.13 6.28Q19.75 6.62 19.75 7.25L19.75 7.25L19.75 7.25Q19.75 7.90 20.13 8.23L20.13 8.23L20.13 8.23Q20.51 8.57 21.25 8.57L21.25 8.57ZM19.91 13.62L22.62 13.62L22.62 13.62Q23.02 13.62 23.28 13.42L23.28 13.42L23.28 13.42Q23.55 13.22 23.55 12.88L23.55 12.88L23.55 12.88Q23.55 12.53 23.32 12.33L23.32 12.33L23.32 12.33Q23.10 12.14 22.74 12.14L22.74 12.14L19.91 12.14L19.91 12.14Q19.56 12.14 19.34 12.35L19.34 12.35L19.34 12.35Q19.12 12.56 19.12 12.88L19.12 12.88L19.12 12.88Q19.12 13.22 19.34 13.42L19.34 13.42L19.34 13.42Q19.56 13.62 19.91 13.62L19.91 13.62ZM26.39 12.29L26.39 4.93L27.78 4.93L27.92 5.91L28.01 5.91L28.01 5.91Q28.38 5.38 28.92 5.07L28.92 5.07L28.92 5.07Q29.46 4.76 30.16 4.76L30.16 4.76L30.16 4.76Q31.57 4.76 32.07 5.91L32.07 5.91L32.19 5.91L32.19 5.91Q32.55 5.39 33.12 5.07L33.12 5.07L33.12 5.07Q33.70 4.76 34.40 4.76L34.40 4.76L34.40 4.76Q35.45 4.76 36.05 5.35L36.05 5.35L36.05 5.35Q36.65 5.94 36.65 7.22L36.65 7.22L36.65 12.29L34.97 12.29L34.97 7.56L34.97 7.56Q34.97 6.22 33.81 6.22L33.81 6.22L33.81 6.22Q33.19 6.22 32.78 6.72L32.78 6.72L32.78 6.72Q32.37 7.22 32.37 8.01L32.37 8.01L32.37 12.29L30.69 12.29L30.69 7.56L30.69 7.56Q30.69 6.22 29.53 6.22L29.53 6.22L29.53 6.22Q28.91 6.22 28.49 6.72L28.49 6.72L28.49 6.72Q28.07 7.22 28.07 8.01L28.07 8.01L28.07 12.29L26.39 12.29ZM41.64 12.46L41.64 12.46Q39.84 12.46 38.98 11.52L38.98 11.52L38.98 11.52Q38.11 10.58 38.11 8.61L38.11 8.61L38.11 8.61Q38.11 6.64 38.98 5.70L38.98 5.70L38.98 5.70Q39.86 4.76 41.64 4.76L41.64 4.76L41.64 4.76Q43.26 4.76 44.07 5.67L44.07 5.67L44.07 5.67Q44.87 6.58 44.87 8.51L44.87 8.51L44.87 9.02L39.82 9.02L39.82 9.02Q39.86 10.11 40.29 10.62L40.29 10.62L40.29 10.62Q40.71 11.13 41.65 11.13L41.65 11.13L41.65 11.13Q42.35 11.13 42.78 10.77L42.78 10.77L42.78 10.77Q43.22 10.42 43.22 9.72L43.22 9.72L44.87 9.72L44.87 9.72Q44.87 11.07 43.97 11.77L43.97 11.77L43.97 11.77Q43.08 12.46 41.64 12.46L41.64 12.46ZM39.84 7.83L43.12 7.83L43.12 7.83Q43.12 6.09 41.64 6.09L41.64 6.09L41.64 6.09Q40.80 6.09 40.37 6.52L40.37 6.52L40.37 6.52Q39.94 6.94 39.84 7.83L39.84 7.83ZM46.35 12.29L46.35 4.93L47.74 4.93L47.88 5.91L47.98 5.91L47.98 5.91Q48.38 5.36 48.98 5.06L48.98 5.06L48.98 5.06Q49.57 4.76 50.34 4.76L50.34 4.76L50.34 4.76Q51.46 4.76 52.09 5.37L52.09 5.37L52.09 5.37Q52.72 5.98 52.72 7.32L52.72 7.32L52.72 12.29L51.04 12.29L51.04 7.62L51.04 7.62Q51.04 6.86 50.70 6.54L50.70 6.54L50.70 6.54Q50.36 6.22 49.69 6.22L49.69 6.22L49.69 6.22Q48.99 6.22 48.51 6.72L48.51 6.72L48.51 6.72Q48.03 7.22 48.03 8.01L48.03 8.01L48.03 12.29L46.35 12.29ZM56.50 12.46L56.50 12.46Q55.57 12.46 55.15 11.94L55.15 11.94L55.15 11.94Q54.74 11.41 54.74 10.63L54.74 10.63L54.74 6.30L53.84 6.30L53.84 4.93L54.77 4.93L55.08 2.87L56.42 2.87L56.42 4.93L57.68 4.93L57.68 6.30L56.42 6.30L56.42 10.46L56.42 10.46Q56.42 11.09 57.02 11.09L57.02 11.09L57.68 11.09L57.68 12.24L57.68 12.24Q57.46 12.32 57.12 12.39L57.12 12.39L57.12 12.39Q56.78 12.46 56.50 12.46L56.50 12.46ZM60.83 12.46L60.83 12.46Q59.93 12.46 59.21 12.02L59.21 12.02L59.21 12.02Q58.49 11.58 58.49 10.39L58.49 10.39L58.49 10.39Q58.49 8.97 59.70 8.40L59.70 8.40L59.70 8.40Q60.90 7.83 63.11 7.83L63.11 7.83L63.11 7.21L63.11 7.21Q63.11 6.68 62.84 6.38L62.84 6.38L62.84 6.38Q62.57 6.09 61.85 6.09L61.85 6.09L61.85 6.09Q61.11 6.09 60.80 6.33L60.80 6.33L60.80 6.33Q60.49 6.57 60.49 6.92L60.49 6.92L60.49 7.11L58.87 7.11L58.87 7.11Q58.86 7.03 58.86 6.80L58.86 6.80L58.86 6.80Q58.86 5.85 59.68 5.31L59.68 5.31L59.68 5.31Q60.49 4.76 61.85 4.76L61.85 4.76L61.85 4.76Q63.32 4.76 64.06 5.36L64.06 5.36L64.06 5.36Q64.79 5.96 64.79 7.08L64.79 7.08L64.79 10.60L64.79 10.60Q64.79 10.85 64.93 10.97L64.93 10.97L64.93 10.97Q65.07 11.09 65.28 11.09L65.28 11.09L65.73 11.09L65.73 12.24L65.73 12.24Q65.28 12.45 64.68 12.45L64.68 12.45L64.68 12.45Q64.13 12.45 63.77 12.18L63.77 12.18L63.77 12.18Q63.41 11.91 63.28 11.45L63.28 11.45L63.18 11.45L63.18 11.45Q62.36 12.46 60.83 12.46L60.83 12.46ZM61.33 11.12L61.33 11.12Q62.16 11.12 62.64 10.64L62.64 10.64L62.64 10.64Q63.11 10.16 63.11 9.35L63.11 9.35L63.11 9.02L63.11 9.02Q61.75 9.02 60.98 9.28L60.98 9.28L60.98 9.28Q60.21 9.53 60.21 10.22L60.21 10.22L60.21 10.22Q60.21 11.12 61.33 11.12L61.33 11.12ZM68.68 12.46L68.68 12.46Q67.75 12.46 67.33 11.94L67.33 11.94L67.33 11.94Q66.92 11.41 66.92 10.63L66.92 10.63L66.92 6.30L66.02 6.30L66.02 4.93L66.95 4.93L67.26 2.87L68.60 2.87L68.60 4.93L69.86 4.93L69.86 6.30L68.60 6.30L68.60 10.46L68.60 10.46Q68.60 11.09 69.20 11.09L69.20 11.09L69.86 11.09L69.86 12.24L69.86 12.24Q69.64 12.32 69.30 12.39L69.30 12.39L69.30 12.39Q68.96 12.46 68.68 12.46L68.68 12.46ZM71.22 3.78L71.22 2.17L72.90 2.17L72.90 3.78L71.22 3.78ZM71.22 12.29L71.22 4.93L72.90 4.93L72.90 12.29L71.22 12.29ZM78.01 12.46L78.01 12.46Q76.19 12.46 75.29 11.52L75.29 11.52L75.29 11.52Q74.38 10.58 74.38 8.61L74.38 8.61L74.38 8.61Q74.38 6.64 75.29 5.70L75.29 5.70L75.29 5.70Q76.19 4.76 78.01 4.76L78.01 4.76L78.01 4.76Q79.83 4.76 80.73 5.70L80.73 5.70L80.73 5.70Q81.63 6.64 81.63 8.61L81.63 8.61L81.63 8.61Q81.63 10.58 80.73 11.52L80.73 11.52L80.73 11.52Q79.83 12.46 78.01 12.46L78.01 12.46ZM78.01 11.09L78.01 11.09Q79.00 11.09 79.45 10.51L79.45 10.51L79.45 10.51Q79.90 9.93 79.90 8.71L79.90 8.71L79.90 8.51L79.90 8.51Q79.90 7.29 79.45 6.71L79.45 6.71L79.45 6.71Q79.00 6.13 78.01 6.13L78.01 6.13L78.01 6.13Q77.00 6.13 76.56 6.71L76.56 6.71L76.56 6.71Q76.12 7.29 76.12 8.51L76.12 8.51L76.12 8.71L76.12 8.71Q76.12 9.93 76.56 10.51L76.56 10.51L76.56 10.51Q77.00 11.09 78.01 11.09L78.01 11.09ZM83.13 12.29L83.13 4.93L84.52 4.93L84.66 5.91L84.76 5.91L84.76 5.91Q85.16 5.36 85.76 5.06L85.76 5.06L85.76 5.06Q86.35 4.76 87.12 4.76L87.12 4.76L87.12 4.76Q88.24 4.76 88.87 5.37L88.87 5.37L88.87 5.37Q89.50 5.98 89.50 7.32L89.50 7.32L89.50 12.29L87.82 12.29L87.82 7.62L87.82 7.62Q87.82 6.86 87.48 6.54L87.48 6.54L87.48 6.54Q87.14 6.22 86.46 6.22L86.46 6.22L86.46 6.22Q85.76 6.22 85.29 6.72L85.29 6.72L85.29 6.72Q84.81 7.22 84.81 8.01L84.81 8.01L84.81 12.29L83.13 12.29ZM95.33 12.29L95.33 2.69L102.23 2.69L102.23 4.21L97.12 4.21L97.12 6.82L101.72 6.82L101.72 8.34L97.12 8.34L97.12 12.29L95.33 12.29ZM105.66 12.46L105.66 12.46Q104.76 12.46 104.04 12.02L104.04 12.02L104.04 12.02Q103.32 11.58 103.32 10.39L103.32 10.39L103.32 10.39Q103.32 8.97 104.52 8.40L104.52 8.40L104.52 8.40Q105.73 7.83 107.94 7.83L107.94 7.83L107.94 7.21L107.94 7.21Q107.94 6.68 107.67 6.38L107.67 6.38L107.67 6.38Q107.39 6.09 106.68 6.09L106.68 6.09L106.68 6.09Q105.94 6.09 105.63 6.33L105.63 6.33L105.63 6.33Q105.32 6.57 105.32 6.92L105.32 6.92L105.32 7.11L103.70 7.11L103.70 7.11Q103.68 7.03 103.68 6.80L103.68 6.80L103.68 6.80Q103.68 5.85 104.50 5.31L104.50 5.31L104.50 5.31Q105.32 4.76 106.68 4.76L106.68 4.76L106.68 4.76Q108.15 4.76 108.89 5.36L108.89 5.36L108.89 5.36Q109.62 5.96 109.62 7.08L109.62 7.08L109.62 10.60L109.62 10.60Q109.62 10.85 109.76 10.97L109.76 10.97L109.76 10.97Q109.90 11.09 110.11 11.09L110.11 11.09L110.56 11.09L110.56 12.24L110.56 12.24Q110.11 12.45 109.51 12.45L109.51 12.45L109.51 12.45Q108.96 12.45 108.60 12.18L108.60 12.18L108.60 12.18Q108.23 11.91 108.11 11.45L108.11 11.45L108.01 11.45L108.01 11.45Q107.18 12.46 105.66 12.46L105.66 12.46ZM106.16 11.12L106.16 11.12Q106.99 11.12 107.46 10.64L107.46 10.64L107.46 10.64Q107.94 10.16 107.94 9.35L107.94 9.35L107.94 9.02L107.94 9.02Q106.58 9.02 105.81 9.28L105.81 9.28L105.81 9.28Q105.04 9.53 105.04 10.22L105.04 10.22L105.04 10.22Q105.04 11.12 106.16 11.12L106.16 11.12ZM113.99 12.46L113.99 12.46Q111.61 12.46 111.61 9.90L111.61 9.90L111.61 4.93L113.29 4.93L113.29 9.60L113.29 9.60Q113.29 10.36 113.63 10.68L113.63 10.68L113.63 10.68Q113.97 11.00 114.65 11.00L114.65 11.00L114.65 11.00Q115.35 11.00 115.82 10.50L115.82 10.50L115.82 10.50Q116.30 10.00 116.30 9.21L116.30 9.21L116.30 4.93L117.98 4.93L117.98 12.29L116.59 12.29L116.45 11.31L116.35 11.31L116.35 11.31Q115.95 11.86 115.35 12.16L115.35 12.16L115.35 12.16Q114.76 12.46 113.99 12.46L113.99 12.46ZM119.94 12.29L119.94 2.17L121.62 2.17L121.62 12.29L119.94 12.29ZM125.43 12.46L125.43 12.46Q124.49 12.46 124.08 11.94L124.08 11.94L124.08 11.94Q123.66 11.41 123.66 10.63L123.66 10.63L123.66 6.30L122.77 6.30L122.77 4.93L123.69 4.93L124.00 2.87L125.34 2.87L125.34 4.93L126.60 4.93L126.60 6.30L125.34 6.30L125.34 10.46L125.34 10.46Q125.34 11.09 125.94 11.09L125.94 11.09L126.60 11.09L126.60 12.24L126.60 12.24Q126.38 12.32 126.04 12.39L126.04 12.39L126.04 12.39Q125.71 12.46 125.43 12.46L125.43 12.46Z"></path></g><!----><!----></svg>