<?xml version="1.0" encoding="UTF-8" standalone="no"?>
<svg
   xmlns:dc="http://purl.org/dc/elements/1.1/"
   xmlns:cc="http://creativecommons.org/ns#"
   xmlns:rdf="http://www.w3.org/1999/02/22-rdf-syntax-ns#"
   xmlns:svg="http://www.w3.org/2000/svg"
   xmlns="http://www.w3.org/2000/svg"
   xmlns:sodipodi="http://sodipodi.sourceforge.net/DTD/sodipodi-0.dtd"
   xmlns:inkscape="http://www.inkscape.org/namespaces/inkscape"
   width="27.454102mm"
   height="21.73555mm"
   viewBox="0 0 27.454102 21.73555"
   version="1.1"
   id="svg8"
   inkscape:version="1.0.2 (e86c870879, 2021-01-15)"
   sodipodi:docname="share.svg">
  <defs
     id="defs2" />
  <sodipodi:namedview
     id="base"
     pagecolor="#ffffff"
     bordercolor="#666666"
     borderopacity="1.0"
     inkscape:pageopacity="0.0"
     inkscape:pageshadow="2"
     inkscape:zoom="0.9899495"
     inkscape:cx="-110.84626"
     inkscape:cy="-267.33065"
     inkscape:document-units="mm"
     inkscape:current-layer="layer1"
     inkscape:document-rotation="0"
     showgrid="false"
     inkscape:window-width="948"
     inkscape:window-height="1050"
     inkscape:window-x="5"
     inkscape:window-y="21"
     inkscape:window-maximized="0" />
  <metadata
     id="metadata5">
    <rdf:RDF>
      <cc:Work
         rdf:about="">
        <dc:format>image/svg+xml</dc:format>
        <dc:type
           rdf:resource="http://purl.org/dc/dcmitype/StillImage" />
        <dc:title></dc:title>
      </cc:Work>
    </rdf:RDF>
  </metadata>
  <g
     inkscape:label="Layer 1"
     inkscape:groupmode="layer"
     id="layer1"
     transform="translate(-89.931288,-194.87576)">
    <path
       style="fill:#000000;stroke-width:0.264583"
       d="m 93.837478,216.19005 -0.92605,-0.40049 -0.88153,-0.84592 -0.88153,-0.84593 -0.55087,-1.05833 -0.55086,-1.05833 -0.11535,-4.4174 0.07258,-4.39094 0.514855,-0.72925 0.70278,-0.70278 0.51424,0.13448 0.51424,0.13447 v -2.10392 -2.10392 l 0.64943,-0.64944 0.64943,-0.64943 h 0.54119 0.5412 v -0.35586 -0.35587 l 0.50576,-0.45772 0.50577,-0.45771 0.74246,0.086 0.74245,0.086 0.57036,0.84931 0.57035,0.8493 0.13161,-0.1316 0.1316,-0.13161 0.702,0.31985 0.70199,0.31985 0.154627,0.6161 0.15463,0.6161 h 0.63278 0.63277 l 0.52917,0.52916 0.52917,0.52917 v 1.57819 1.57819 l 0.56263,0.30111 0.56263,0.30112 0.62799,-0.28613 0.628,-0.28614 v -1.71046 -1.71046 l 0.58803,-0.41188 0.58804,-0.41187 h 0.47685 0.47684 l 0.25329,-0.66621 0.25329,-0.6662 0.68841,-0.26173 0.6884,-0.26173 0.24238,0.1498 0.24238,0.1498 v -0.41249 -0.41249 l 0.52917,-0.52917 0.52917,-0.52917 h 0.80605 0.80606 l 0.45071,0.78686 0.45072,0.78686 0.72727,0.16013 0.72728,0.16014 0.3972,0.56708 0.39721,0.56709 v 2.03303 2.03302 l 0.53786,-0.14065 0.53787,-0.14066 0.52047,0.47102 0.52046,0.47101 -0.006,4.65535 -0.006,4.65535 -0.48571,1.06928 -0.4857,1.06928 -0.89556,0.75356 -0.89556,0.75356 -1.1484,0.49226 -1.14838,0.49227 h -1.24903 -1.24904 l -1.37528,-0.68534 -1.37528,-0.68533 -0.79333,-0.96245 -0.79334,-0.96245 v -0.33659 -0.33659 h -0.21846 -0.21846 l -0.62404,0.66425 -0.62403,0.66426 -0.77983,-0.7304 -0.77982,-0.73041 -0.1138,0.31358 -0.1138,0.31357 -0.75319,1.03975 -0.75319,1.03975 -1.399097,0.6972 -1.39909,0.6972 -1.46941,-0.0104 -1.4694,-0.0104 z m 5.32814,-1.5559 1.037372,-0.6865 0.5671,-1.16727 0.56711,-1.16728 -1.760322,-1.86602 -1.76031,-1.86603 -0.1701,-0.67772 -0.1701,-0.67773 0.12998,-1.15316 0.12998,-1.15316 -0.48699,-0.12735 -0.487,-0.12735 -0.0734,-3.92927 -0.0734,-3.92926 h -0.39687 -0.39688 l -0.073,4.03489 -0.073,4.0349 h -0.51388 -0.51388 l -0.0745,-3.10885 -0.0746,-3.10886 h -0.52916 -0.52917 l -0.0724,4.40115 -0.0724,4.40115 0.95587,0.17932 0.95587,0.17933 0.62779,0.28604 0.62779,0.28604 0.67444,1.01915 0.67445,1.01916 0.0633,0.59662 0.0633,0.59662 h -0.51235 -0.51235 l -0.21851,-0.84325 -0.2185,-0.84325 -0.69389,-0.54581 -0.69389,-0.54581 h -1.41953 -1.41952 v -2.23006 l -0.0019,-2.44705 -0.617,-0.21339 -0.483859,0.53 -0.01082,3.05047 0.03111,4.08815 0.14523,0.80068 0.14523,0.80068 0.84029,1.01943 0.8403,1.01943 1.07705,0.50554 1.07705,0.50554 1.41779,-0.12668 1.41778,-0.12669 z m 13.925182,0.50927 0.98008,-0.4095 0.63383,-0.58269 0.63382,-0.58268 0.48846,-1.05834 0.48845,-1.05833 0.006,-4.30879 -0.002,-3.69624 -0.49808,-0.49707 -0.55987,0.16203 0.007,2.66084 v 2.37194 h -1.41953 -1.41953 l -0.67798,0.5333 -0.67799,0.53331 -0.30426,0.9219 -0.30425,0.92191 h -0.50865 -0.50865 v -0.40538 -0.40537 l 0.3688,-0.88267 0.3688,-0.88266 0.88797,-0.66797 0.88797,-0.66796 1.05834,-0.17262 1.05833,-0.17261 -0.0492,-4.38081 -0.0492,-4.38081 -0.13784,-0.13784 -0.13784,-0.13784 -0.40829,0.15667 -0.40828,0.15668 v 3.05101 3.05101 h -0.52917 -0.52917 v -3.97705 -3.97706 l -0.42358,-0.16254 -0.42357,-0.16254 -0.23971,0.36928 -0.2397,0.36928 0.0311,0.52917 0.0311,0.52917 -0.0293,3.24114 -0.0293,3.24115 h -0.37776 -0.37776 l 0.14516,1.40649 0.14516,1.40649 -0.40848,0.77632 -0.40848,0.77632 -1.47559,1.44617 -1.47559,1.44617 v 0.43237 0.43236 l 0.76512,1.05621 0.76512,1.05622 1.15311,0.57077 1.15311,0.57077 1.00069,2.1e-4 1.00068,2.1e-4 z m -4.93641,-7.36926 0.76434,-1.03188 v -0.74988 -0.74988 l -0.76668,-0.85806 -0.76667,-0.85805 h -1.07431 -1.07432 l -0.75889,0.72706 -0.75889,0.72706 -0.46196,-0.51046 -0.46196,-0.51046 -0.75906,-0.31442 -0.75906,-0.31441 -0.9462,0.31228 -0.946212,0.31227 -0.39227,0.75857 -0.39227,0.75858 v 0.5597 0.5597 l 0.29378,0.57792 0.29379,0.57791 2.279832,2.31455 2.27982,2.31454 1.82143,-1.78538 1.82142,-1.78537 z m 1.2935,-6.90561 v -3.04271 h -0.52916 -0.52917 v 2.55749 2.55749 l 0.46302,0.46949 0.46302,0.4695 0.0661,0.0157 0.0661,0.0157 z m -10.318752,-0.46052 v -2.58219 h -0.52916 -0.52917 v 2.91266 2.91266 l 0.52917,-0.33047 0.52916,-0.33047 z m 2.381252,0.58451 v -1.33122 l -0.42358,-0.16255 -0.42357,-0.16254 -0.23383,0.36928 -0.23383,0.36929 -0.004,1.12448 -0.004,1.12448 h 0.66145 0.66146 z m 5.50393,-0.0579 -0.08,-1.38906 h -0.39687 -0.39688 l -0.08,1.38906 -0.08,1.38907 h 0.55683 0.55682 z"
       id="path28"
       sodipodi:nodetypes="cccccccccccccccccccccccccccccccccccccccccccccccccccccccccccccccccccccccccccccccccccccccccccccccccccccccccccccccccccccccccccccccccccccccccccccccccccccccccccccccccccccccccccccccccccccccccccccccccccccccccccccccccccccccccccccccccccccccccccccccccccccccccccccccccccccccccccccccccccccccccccccccccccc" />
  </g>
</svg>
